<?xml version="1.0" encoding="utf-8"?>
<!-- Generator: Adobe Illustrator 26.0.3, SVG Export Plug-In . SVG Version: 6.00 Build 0)  -->
<svg version="1.1" id="Layer_1" xmlns="http://www.w3.org/2000/svg" xmlns:xlink="http://www.w3.org/1999/xlink" x="0px" y="0px"
	 viewBox="0 0 127 40" style="enable-background:new 0 0 127 40;" xml:space="preserve">
<g>
	<path d="M26.8,16.7c0,1-0.2,1.9-0.5,2.8c-0.4,0.9-1,1.7-1.8,2.4c-0.8,0.7-1.9,1.3-3.3,1.7c-1.4,0.4-3,0.6-5,0.6H0l2.9-4.7h6.6h6.5
		c0.9,0,1.6-0.1,2.2-0.2c0.6-0.1,1.1-0.3,1.5-0.5c0.4-0.2,0.6-0.5,0.8-0.9c0.2-0.4,0.2-0.8,0.2-1.2c0-0.5-0.1-0.9-0.2-1.2
		c-0.2-0.4-0.4-0.6-0.8-0.9c-0.4-0.2-0.9-0.4-1.5-0.5c-0.6-0.1-1.4-0.2-2.2-0.2H8.8H2.9L0,9.2h16.2c2.1,0,3.9,0.2,5.2,0.6
		c1.4,0.4,2.5,1,3.2,1.7c0.8,0.7,1.3,1.5,1.7,2.4C26.7,14.8,26.8,15.7,26.8,16.7"/>
	<polygon points="44.2,9.2 37.7,9.2 27.6,24.2 34,24.2 35.5,21.9 37.8,18.4 41,13.5 44.2,18.4 46.5,21.9 47.9,24.2 54.4,24.2 	"/>
	<polygon points="77.1,9.2 67.9,24.2 59.6,24.2 50.3,9.2 57.1,9.2 63.8,20.2 70.5,9.2 	"/>
	<polygon points="85.5,17.9 85.5,19.7 103.4,19.7 103.4,24.2 79.6,24.2 79.6,9.2 103.3,9.2 103.3,13.6 85.5,13.6 85.5,15.5 
		95.4,15.5 95.4,17.9 	"/>
	<polygon points="113.3,19.8 113.3,9.2 107.4,9.2 107.4,24.2 127,24.2 127,19.8 	"/>
	<path d="M35.8,29.5c0,0.3-0.1,0.5-0.3,0.7c-0.2,0.2-0.4,0.4-0.6,0.5c-0.3,0.1-0.5,0.2-0.9,0.2c-0.3,0-0.6,0-0.8-0.1
		c-0.2-0.1-0.5-0.2-0.6-0.4c-0.2-0.2-0.3-0.4-0.4-0.6C32,29.5,32,29.2,32,28.9c0-0.3,0.1-0.6,0.2-0.8c0.1-0.2,0.2-0.5,0.4-0.6
		c0.2-0.2,0.4-0.3,0.6-0.4c0.2-0.1,0.5-0.1,0.8-0.1c0.3,0,0.6,0.1,0.9,0.2c0.3,0.1,0.5,0.3,0.6,0.5c0.2,0.2,0.3,0.5,0.3,0.7h-0.5
		c-0.1-0.2-0.1-0.3-0.3-0.5c-0.1-0.1-0.3-0.2-0.4-0.3c-0.2-0.1-0.4-0.1-0.6-0.1c-0.3,0-0.5,0.1-0.7,0.2c-0.2,0.1-0.4,0.3-0.5,0.5
		c-0.1,0.2-0.2,0.5-0.2,0.8c0,0.3,0.1,0.6,0.2,0.8c0.1,0.2,0.3,0.4,0.5,0.5c0.2,0.1,0.5,0.2,0.7,0.2c0.2,0,0.4,0,0.6-0.1
		c0.2-0.1,0.3-0.2,0.4-0.3c0.1-0.1,0.2-0.3,0.3-0.5H35.8z"/>
	<path d="M37.2,30.8V27h2c0.3,0,0.5,0,0.7,0.1c0.2,0.1,0.4,0.2,0.5,0.4c0.1,0.2,0.2,0.4,0.2,0.6c0,0.2,0,0.3-0.1,0.4
		c-0.1,0.1-0.1,0.2-0.2,0.3C40.1,28.9,40,29,39.8,29c-0.1,0-0.3,0.1-0.4,0.1l0,0c0.2,0,0.4,0,0.6,0.1c0.2,0,0.3,0.1,0.4,0.2
		c0.1,0.1,0.1,0.3,0.1,0.5v0.9h-0.6v-0.9c0-0.2,0-0.3-0.1-0.4c-0.1-0.1-0.1-0.1-0.3-0.2c-0.1,0-0.3-0.1-0.5-0.1h-1.2v1.5H37.2z
		 M37.8,28.8h1.4c0.3,0,0.4-0.1,0.6-0.2c0.1-0.1,0.2-0.3,0.2-0.5c0-0.2-0.1-0.3-0.2-0.5c-0.1-0.1-0.3-0.2-0.6-0.2h-1.4V28.8z"/>
	<polygon points="42.5,29.1 42.5,30.3 44.9,30.3 44.9,30.8 41.9,30.8 41.9,27 44.9,27 44.9,27.5 42.5,27.5 42.5,28.6 44.5,28.6 
		44.5,29.1 	"/>
	<path d="M46,30.8l1.6-3.8h0.6l1.6,3.8h-0.6l-1.4-3.4H48l-1.4,3.4H46z M46.8,29.3h2.1v0.5h-2.1V29.3z"/>
	<path d="M50.2,27h3.4v0.5h-3.4V27z M51.6,27.4h0.6v3.4h-0.6V27.4z"/>
	<rect x="54.8" y="27" width="0.6" height="3.8"/>
	<polygon points="58.2,30.8 56.7,27 57.3,27 58.6,30.3 58.4,30.3 59.7,27 60.3,27 58.8,30.8 	"/>
	<polygon points="62,29.1 62,30.3 64.5,30.3 64.5,30.8 61.5,30.8 61.5,27 64.5,27 64.5,27.5 62,27.5 62,28.6 64.1,28.6 64.1,29.1 	
		"/>
	<path d="M67.5,30.8L69,27h0.6l1.6,3.8h-0.6l-1.4-3.4h0.2l-1.4,3.4H67.5z M68.3,29.3h2.1v0.5h-2.1V29.3z"/>
	<path d="M74,30.8c-0.3,0-0.6,0-0.8-0.1c-0.2-0.1-0.5-0.2-0.6-0.4c-0.2-0.2-0.3-0.4-0.4-0.6c-0.1-0.2-0.1-0.5-0.1-0.8
		c0-0.3,0-0.6,0.1-0.8c0.1-0.2,0.2-0.5,0.4-0.6c0.2-0.2,0.4-0.3,0.6-0.4c0.2-0.1,0.5-0.1,0.8-0.1c0.3,0,0.6,0.1,0.9,0.2
		c0.3,0.1,0.5,0.3,0.6,0.5c0.2,0.2,0.2,0.5,0.3,0.7h-0.5c-0.1-0.2-0.1-0.3-0.2-0.5c-0.1-0.1-0.3-0.2-0.4-0.3
		c-0.2-0.1-0.4-0.1-0.6-0.1c-0.3,0-0.5,0.1-0.8,0.2c-0.2,0.1-0.4,0.3-0.5,0.5c-0.1,0.2-0.2,0.5-0.2,0.8c0,0.3,0.1,0.5,0.2,0.8
		c0.1,0.2,0.3,0.4,0.5,0.5c0.2,0.1,0.5,0.2,0.8,0.2c0.2,0,0.4,0,0.6-0.1c0.2-0.1,0.3-0.2,0.4-0.3c0.1-0.1,0.2-0.3,0.2-0.5l0.3,0
		c-0.1,0.5-0.2,0.9-0.5,1.2C74.8,30.7,74.5,30.8,74,30.8 M75.5,30.8c0-0.1,0-0.3,0-0.4c0-0.2,0-0.3,0-0.5c0-0.2,0-0.3,0-0.4h-1.4
		v-0.5H76v1.8H75.5z"/>
	<polygon points="78,29.1 78,30.3 80.5,30.3 80.5,30.8 77.4,30.8 77.4,27 80.5,27 80.5,27.5 78,27.5 78,28.6 80,28.6 80,29.1 	"/>
	<polygon points="85.2,30.2 85,30.2 85,27 85.6,27 85.6,30.8 85,30.8 82.3,27.6 82.5,27.5 82.5,30.8 81.9,30.8 81.9,27 82.5,27 	"/>
	<path d="M90.7,29.5c0,0.3-0.1,0.5-0.3,0.7c-0.2,0.2-0.4,0.4-0.6,0.5c-0.3,0.1-0.5,0.2-0.9,0.2c-0.3,0-0.6,0-0.8-0.1
		c-0.2-0.1-0.5-0.2-0.6-0.4c-0.2-0.2-0.3-0.4-0.4-0.6c-0.1-0.2-0.2-0.5-0.2-0.8c0-0.3,0.1-0.6,0.2-0.8c0.1-0.2,0.2-0.5,0.4-0.6
		c0.2-0.2,0.4-0.3,0.6-0.4c0.2-0.1,0.5-0.1,0.8-0.1c0.3,0,0.6,0.1,0.9,0.2c0.3,0.1,0.5,0.3,0.6,0.5c0.2,0.2,0.3,0.5,0.3,0.7h-0.5
		c-0.1-0.2-0.1-0.3-0.3-0.5c-0.1-0.1-0.3-0.2-0.4-0.3c-0.2-0.1-0.4-0.1-0.6-0.1c-0.3,0-0.5,0.1-0.7,0.2c-0.2,0.1-0.4,0.3-0.5,0.5
		c-0.1,0.2-0.2,0.5-0.2,0.8c0,0.3,0.1,0.6,0.2,0.8c0.1,0.2,0.3,0.4,0.5,0.5c0.2,0.1,0.5,0.2,0.7,0.2c0.2,0,0.4,0,0.6-0.1
		c0.2-0.1,0.3-0.2,0.4-0.3c0.1-0.1,0.2-0.3,0.3-0.5H90.7z"/>
	<polygon points="95,27 93.6,29.5 93.6,30.8 93,30.8 93,29.5 91.5,27 92.2,27 93.4,29.2 93.1,29.2 94.4,27 	"/>
</g>
</svg>
