<?xml version="1.0" encoding="utf-8"?>
<!-- Generator: Adobe Illustrator 26.0.2, SVG Export Plug-In . SVG Version: 6.00 Build 0)  -->
<svg version="1.1" id="Layer_1" xmlns="http://www.w3.org/2000/svg" xmlns:xlink="http://www.w3.org/1999/xlink" x="0px" y="0px"
	 viewBox="0 0 36.9 27.2" style="enable-background:new 0 0 36.9 27.2;" xml:space="preserve">
<style type="text/css">
	.st0{fill:#FFFFFF;}
	.st1{fill:#8800FF;}
</style>
<g id="Layer_2_00000041996013447092370980000004296631646287616670_">
	<g id="Layer_1-2_00000173870613692218993240000018308514537410090375_">
		<path class="st0" d="M20.11,70.09v2.16h3.46l-0.31,3.73h-3.1v11.24h-4.5v-11.2h-2.34v-3.78h2.34v-3.01c0-2.79,1.53-4.27,4.81-4.27
			h3.1v3.87h-2.43C20.34,68.83,20.11,69.19,20.11,70.09z"/>
	</g>
</g>
<g id="Layer_2_00000175282542118634443080000006339398660511237033_">
	<g id="Layer_1-2_00000098203113347595035410000006328026613874272646_">
		<path class="st0" d="M14.92,134.99c0.46,1.18,1.5,2,2.69,2.23C16.42,136.99,15.42,136.17,14.92,134.99z M14.92,134.99
			c0.46,1.18,1.5,2,2.69,2.23C16.42,136.99,15.42,136.17,14.92,134.99z M14.92,134.99c0.46,1.18,1.5,2,2.69,2.23
			C16.42,136.99,15.42,136.17,14.92,134.99z M14.92,134.99c0.46,1.18,1.5,2,2.69,2.23C16.42,136.99,15.42,136.17,14.92,134.99z
			 M14.92,134.99c0.46,1.18,1.5,2,2.69,2.23C16.42,136.99,15.42,136.17,14.92,134.99z M14.92,134.99c0.46,1.18,1.5,2,2.69,2.23
			C16.42,136.99,15.42,136.17,14.92,134.99z M14.92,134.99c0.46,1.18,1.5,2,2.69,2.23C16.42,136.99,15.42,136.17,14.92,134.99z
			 M14.92,134.99c0.46,1.18,1.5,2,2.69,2.23C16.42,136.99,15.42,136.17,14.92,134.99z M14.92,134.99c0.46,1.18,1.5,2,2.69,2.23
			C16.42,136.99,15.42,136.17,14.92,134.99z M14.92,134.99c0.46,1.18,1.5,2,2.69,2.23C16.42,136.99,15.42,136.17,14.92,134.99z
			 M14.92,134.99c0.46,1.18,1.5,2,2.69,2.23C16.42,136.99,15.42,136.17,14.92,134.99z"/>
		<path class="st0" d="M29.72,128.84c0-0.91-0.18-1.82-0.5-2.73c-0.32-0.73-0.77-1.41-1.37-2c-0.55-0.55-1.18-1-1.96-1.27
			c-0.87-0.32-1.82-0.5-2.78-0.55c-1.23-0.05-1.59-0.05-4.69-0.05s-3.46,0-4.73,0.05c-0.91,0-1.82,0.18-2.73,0.55
			c-0.73,0.27-1.41,0.68-1.96,1.27c-0.59,0.55-1.05,1.23-1.32,2c-0.32,0.87-0.5,1.82-0.55,2.73c-0.05,1.27-0.05,1.64-0.05,4.73
			s0,3.46,0.05,4.73c0,0.91,0.18,1.87,0.55,2.73c0.27,0.73,0.73,1.41,1.32,1.96c0.55,0.59,1.23,1.05,1.96,1.37
			c0.87,0.32,1.82,0.5,2.73,0.5c1.23,0.09,1.55,0.09,4.69,0.09s3.51,0,4.73-0.09c0.96,0,1.87-0.18,2.78-0.5
			c1.5-0.59,2.73-1.78,3.32-3.32c0.32-0.87,0.5-1.82,0.55-2.78c0.05-1.27,0.05-1.59,0.05-4.73
			C29.81,130.39,29.76,130.07,29.72,128.84z M27.67,138.13c0,0.73-0.14,1.46-0.41,2.09c-0.18,0.5-0.46,0.96-0.82,1.32
			c-0.36,0.36-0.82,0.68-1.32,0.87c-0.68,0.27-1.41,0.41-2.09,0.41c-1.18,0.05-1.55,0.05-4.6,0.05s-3.37-0.05-4.6-0.05
			c-0.73,0-1.46-0.14-2.09-0.41c-1-0.41-1.78-1.18-2.14-2.14c-0.27-0.68-0.41-1.41-0.41-2.14c-0.09-1.18-0.09-1.55-0.09-4.55
			c0-3.05,0-3.37,0.09-4.6c0-0.73,0.14-1.46,0.41-2.09c0.41-1,1.18-1.78,2.14-2.14c0.68-0.23,1.41-0.36,2.09-0.41
			c1.18-0.05,1.55-0.05,4.6-0.05s3.37,0,4.6,0.05c0.73,0,1.41,0.14,2.09,0.41c0.5,0.18,0.96,0.46,1.32,0.87
			c0.36,0.36,0.68,0.82,0.82,1.32c0.27,0.68,0.41,1.41,0.41,2.09c0.05,1.18,0.05,1.55,0.05,4.6
			C27.71,136.67,27.71,136.95,27.67,138.13z"/>
		<path class="st0" d="M25.85,127.48L25.85,127.48c0,0.77-0.59,1.37-1.37,1.37s-1.37-0.59-1.37-1.37s0.59-1.37,1.37-1.37
			S25.8,126.7,25.85,127.48z"/>
		<path class="st0" d="M22.52,129.43c-1.05-1.05-2.5-1.73-4.1-1.73c-3.23,0-5.83,2.6-5.83,5.83s2.6,5.83,5.83,5.83
			s5.83-2.6,5.83-5.83C24.25,131.94,23.57,130.48,22.52,129.43z M19.88,137.04c-0.77,0.32-1.55,0.36-2.28,0.18
			c-1.14-0.27-2.19-1.05-2.69-2.23c-0.77-1.82,0-3.92,1.78-4.78c0.09-0.05,0.18-0.09,0.27-0.14c1.96-0.82,4.14,0.09,4.96,2.05
			C22.71,134.03,21.8,136.26,19.88,137.04z"/>
		<path class="st0" d="M16.7,130.21c-1.73,0.87-2.5,2.96-1.78,4.78C14.15,133.17,14.92,131.07,16.7,130.21z"/>
		<path class="st0" d="M21.93,132.12c-0.82-1.91-3-2.82-4.96-2.05C18.93,129.25,21.11,130.16,21.93,132.12z"/>
	</g>
</g>
<g id="Layer_2_00000117658741244937570410000006342725724912882601_">
	<g id="Layer_1-2_00000082339979114415443700000015838431937598068395_">
		<path class="st0" d="M12.75,97.86L12.75,97.86c0,1.54-1.22,2.76-2.71,2.76S7.28,99.4,7.28,97.9c0-1.49,1.22-2.76,2.71-2.76
			S12.75,96.37,12.75,97.86z"/>
		<rect x="7.77" y="102.56" class="st0" width="4.61" height="14.84"/>
		<path class="st0" d="M29.62,108.04l-0.05,9.36h-4.57v-7.78c0-2.13-0.81-3.35-2.49-3.35c-1.85,0-2.8,1.27-2.8,3.35v7.78h-4.43
			v-14.84h4.48v2.04c0.95-1.54,2.67-2.49,4.48-2.44C27.36,102.16,29.62,104.06,29.62,108.04z"/>
	</g>
</g>
<g id="Layer_2_00000021119324647895704420000005917367141528553127_">
	<g id="Layer_1-2_00000159445003063770595870000000659504101288376973_">
		<path class="st0" d="M27.32-37.71c0,5.23-2.89,9.1-7.14,9.1c-1.26,0.05-2.52-0.61-3.22-1.63c0,0-0.75,3.03-0.89,3.64
			c-0.56,1.59-1.35,3.03-2.38,4.34c-0.05,0.09-0.19,0.09-0.23,0.05c-0.05-0.05-0.05-0.05-0.05-0.09c-0.28-1.68-0.28-3.36,0-5.04
			c0.23-1.07,1.68-7.19,1.68-7.19c-0.28-0.65-0.42-1.4-0.42-2.1c0-1.96,1.12-3.41,2.57-3.41c0.98,0,1.77,0.79,1.77,1.77
			c0,0.09,0,0.14,0,0.23c0,1.21-0.75,3.03-1.17,4.67c-0.28,1.07,0.37,2.19,1.49,2.47c0.19,0.05,0.42,0.09,0.61,0.05
			c2.47,0,4.2-3.22,4.2-7.1c0-2.89-1.96-5.04-5.51-5.04c-3.46-0.14-6.35,2.57-6.49,5.98c0,0.09,0,0.23,0,0.33
			c-0.05,0.93,0.28,1.87,0.89,2.61c0.23,0.19,0.28,0.47,0.19,0.75c-0.09,0.23-0.23,0.84-0.28,1.07c-0.05,0.23-0.28,0.42-0.51,0.37
			c-0.05,0-0.09-0.05-0.14-0.05c-1.82-0.75-2.71-2.75-2.71-5.04c-0.09-3.83,3.08-8.31,9.38-8.31
			C24.01-45.27,27.32-41.63,27.32-37.71z"/>
	</g>
</g>
<g id="Layer_2_00000149361607575593396280000011621812283650637458_">
	<g id="Layer_1-2_00000179604565969680485430000008561430760900621457_">
		<path class="st0" d="M28.2,158.44l-0.05,3.77c-0.18,0-0.37,0-0.55,0c-2.02,0-3.95-1.01-5.06-2.76v9.34c0,3.82-3.08,6.94-6.9,6.94
			s-6.94-3.08-6.94-6.9s3.08-6.94,6.9-6.94l0,0h0.41v3.4H15.6c-1.93,0-3.54,1.56-3.54,3.54s1.56,3.54,3.54,3.54h0.05
			c1.93,0,3.54-1.52,3.63-3.5v-15.87h3.31C22.91,155.96,25.3,158.21,28.2,158.44z"/>
	</g>
</g>
<g id="Layer_2_00000044143046156873031500000005370126947854397627_">
	<g id="Layer_1-2_00000035526086064412546550000000891110438268716434_">
		<path class="st0" d="M32.14-84.24c-0.72,1.16-1.66,2.16-2.77,2.99c0.39,8.81-6.48,16.23-15.29,16.62
			c-3.27,0.11-6.54-0.78-9.31-2.6c2.99,0.33,5.98-0.5,8.31-2.33c-2.38-0.06-4.49-1.61-5.26-3.88c0.83,0.17,1.72,0.11,2.55-0.11
			c-2.6-0.55-4.43-2.88-4.43-5.54c0.78,0.44,1.66,0.66,2.55,0.72c-2.44-1.66-3.21-4.93-1.72-7.48c2.83,3.49,7.04,5.65,11.58,5.87
			c-0.72-3.05,1.11-6.04,4.16-6.76c1.94-0.44,3.99,0.17,5.37,1.61c1.22-0.28,2.44-0.72,3.49-1.39c-0.44,1.27-1.27,2.38-2.49,3.1
			C30.03-83.46,31.14-83.8,32.14-84.24z"/>
	</g>
</g>
<g id="Layer_2_00000009585736587742417630000013285616672400116397_">
	<g id="Layer_1-2_00000071542848910110735800000006143867526786184092_">
		<path class="st0" d="M64.12,61.31c-1.69,0.42-3.37,0.84-5.11,1.26c-0.21,0.05-0.37,0.05-0.58,0.11c-0.53,0-0.95-0.26-1.21-0.74
			c-0.26-0.42-0.26-0.95,0-1.37c1.16-1.58,2.32-3.16,3.48-4.74c0.05-0.05,0.11-0.11,0.11-0.16c0.42-0.42,1.11-0.47,1.53-0.05
			c0.42,0.32,0.79,0.68,1.11,1.16c0.58,0.84,1.11,1.74,1.53,2.63C65.49,60.41,65.12,61.05,64.12,61.31z"/>
		<path class="st0" d="M65.39,67.37c-0.05,0.26-0.11,0.47-0.21,0.68c-0.63,1.37-1.58,2.53-2.74,3.48c-0.26,0.21-0.63,0.32-0.95,0.37
			c-0.37,0.05-0.74-0.16-0.9-0.47c-1.05-1.69-2.11-3.37-3.16-5.06c-0.26-0.47-0.21-1.11,0.21-1.53c0.32-0.42,0.9-0.63,1.42-0.42
			c1.84,0.63,3.69,1.21,5.53,1.84C65.07,66.42,65.39,66.84,65.39,67.37z"/>
		<path class="st0" d="M55.69,69.74h-0.05c0,1,0.05,1.95,0,2.95c0,0.11,0,0.21,0,0.26c-0.11,0.58-0.68,1-1.26,0.9
			c-1.32-0.11-2.53-0.53-3.69-1.16c-0.37-0.16-0.68-0.37-0.95-0.63c-0.05,0-0.05-0.05-0.11-0.11c-0.42-0.42-0.47-1.11-0.05-1.53
			c1.26-1.53,2.53-3.06,3.79-4.53c0.37-0.42,1-0.58,1.53-0.32c0.53,0.21,0.84,0.68,0.79,1.21C55.69,66.79,55.69,69.74,55.69,69.74z"
			/>
		<path class="st0" d="M53.59,63.26c0,0.58-0.42,1.11-0.95,1.26c-1.84,0.58-3.58,1.11-5.37,1.69c-0.11,0.05-0.26,0.11-0.37,0.11
			c-0.68,0.05-1.32-0.42-1.37-1.16c-0.05-0.16-0.05-0.37-0.11-0.53c-0.05-0.42-0.11-0.9-0.11-1.32l0,0
			c0.11-0.84,0.21-1.74,0.42-2.53c0.26-1.05,0.9-1.37,1.84-0.95c1.74,0.68,3.42,1.37,5.11,2.11C53.27,62.1,53.64,62.68,53.59,63.26z
			"/>
		<path class="st0" d="M55.69,57.83c0,0.53,0,1-0.05,1.53c0,0.53-0.37,0.95-0.84,1.11c-0.47,0.16-1,0-1.37-0.37
			c-0.21-0.21-0.42-0.42-0.58-0.68l-5.16-8.22c-0.05-0.11-0.16-0.21-0.16-0.37c-0.26-0.58,0-1.21,0.63-1.48
			c1.21-0.63,2.48-1.11,3.79-1.32c0.58-0.16,1.21-0.21,1.79-0.26c0.11,0,0.21,0,0.32,0c0.63,0.05,1.11,0.63,1.05,1.26
			C55.32,51.98,55.53,54.88,55.69,57.83L55.69,57.83z"/>
	</g>
</g>
<g id="Layer_2_00000163771639673923879590000016081209694128580748_">
	<g id="Layer_1-2_00000163036259142362301380000005248240774787621051_">
		<path class="st0" d="M-7.81,60.26c0-2.77-2.21-5.03-4.98-5.03c-2.43-0.06-4.92,0-7.41,0h-9.96c-2.71,0.06-4.92,2.27-4.92,4.98
			c-0.11,3.21-0.11,6.36-0.06,9.51c0.06,2.77,2.27,4.98,4.98,4.98c2.88,0.06,5.75,0,8.68,0l0,0h8.68c2.77-0.06,4.98-2.27,4.98-5.03
			C-7.75,66.57-7.75,63.42-7.81,60.26z M-25.01,69.11v-8.3l7.14,4.15L-25.01,69.11z"/>
	</g>
</g>
<g id="Layer_2_00000010991293602088147020000016895346292226472588_">
	<g id="Layer_1-2_00000127029261942990776510000012757756219620118958_">
		<path class="st0" d="M33.34,43.05c-0.12-1.03-0.49-2.01-1.09-2.86c-0.61-0.91-1.4-1.64-2.43-2.07s-2.13-0.67-3.22-0.67
			c-1.82-0.06-3.65,0.61-4.92,1.88c-1.34,1.52-2.01,3.47-1.88,5.47c0,2.55,0.67,4.38,2.13,5.53c1.4,1.09,3.1,1.7,4.86,1.7
			c1.95,0.12,3.83-0.61,5.17-2.01c0.73-0.67,1.16-1.52,1.34-2.49h-3.65c-0.18,0.36-0.43,0.67-0.73,0.97
			c-0.55,0.43-1.28,0.67-2.01,0.61c-0.67,0-1.4-0.18-2.01-0.49c-0.97-0.67-1.52-1.76-1.46-2.92h10.03
			C33.47,44.88,33.47,43.96,33.34,43.05z M23.5,43.42c0.06-0.79,0.43-1.52,0.97-2.13c0.61-0.55,1.34-0.85,2.19-0.79
			c0.79,0,1.52,0.24,2.13,0.73c0.61,0.55,0.97,1.34,0.97,2.13H23.5V43.42z"/>
		<rect x="22.34" y="34.06" class="st0" width="8.09" height="1.88"/>
		<path class="st0" d="M18.02,43.3c-0.49-0.79-1.28-1.34-2.13-1.64c0.55-0.24,1.03-0.61,1.4-1.03c0.61-0.79,0.91-1.76,0.85-2.74
			c0.06-1.03-0.24-2.01-0.85-2.86c-1.22-1.4-3.04-2.19-4.86-2.01h-9v18.66h8.39c0.91,0,1.76-0.06,2.61-0.24
			c0.79-0.12,1.52-0.49,2.13-0.91c0.55-0.43,0.97-0.91,1.34-1.46c0.55-0.91,0.85-1.95,0.85-2.98C18.81,45.12,18.57,44.15,18.02,43.3
			z M7.14,36.3h4.07c0.73,0,1.46,0.06,2.19,0.3c0.67,0.3,1.09,0.97,1.03,1.7c0.06,0.67-0.24,1.28-0.73,1.64
			c-0.61,0.3-1.28,0.49-2.01,0.49H7.14V36.3z M13.59,48.16c-0.61,0.24-1.22,0.36-1.88,0.3H7.14v-4.92h4.62
			c0.61,0,1.28,0.06,1.88,0.3c0.79,0.36,1.28,1.16,1.22,1.95C14.92,46.76,14.44,47.67,13.59,48.16z"/>
	</g>
</g>
<g id="Layer_2_00000052784129562655002870000005250708753029026707_">
	<g id="Layer_1-2_00000000911299554015007390000014166269541150303914_">
		<path class="st1" d="M-94.82-51.28v2.16h3.46l-0.31,3.73h-3.1v11.24h-4.5v-11.2h-2.34v-3.78h2.34v-3.01
			c0-2.79,1.53-4.27,4.81-4.27h3.1v3.87h-2.43C-94.59-52.54-94.82-52.18-94.82-51.28z"/>
	</g>
</g>
<g id="Layer_2_00000159447554026138177820000008077647000834512815_">
	<g id="Layer_1-2_00000175305454298396204120000013718498458526718628_">
		<path class="st1" d="M-31.91-74.36c0.46,1.18,1.5,2,2.69,2.23C-30.41-72.35-31.41-73.17-31.91-74.36z M-31.91-74.36
			c0.46,1.18,1.5,2,2.69,2.23C-30.41-72.35-31.41-73.17-31.91-74.36z M-31.91-74.36c0.46,1.18,1.5,2,2.69,2.23
			C-30.41-72.35-31.41-73.17-31.91-74.36z M-31.91-74.36c0.46,1.18,1.5,2,2.69,2.23C-30.41-72.35-31.41-73.17-31.91-74.36z
			 M-31.91-74.36c0.46,1.18,1.5,2,2.69,2.23C-30.41-72.35-31.41-73.17-31.91-74.36z M-31.91-74.36c0.46,1.18,1.5,2,2.69,2.23
			C-30.41-72.35-31.41-73.17-31.91-74.36z M-31.91-74.36c0.46,1.18,1.5,2,2.69,2.23C-30.41-72.35-31.41-73.17-31.91-74.36z
			 M-31.91-74.36c0.46,1.18,1.5,2,2.69,2.23C-30.41-72.35-31.41-73.17-31.91-74.36z M-31.91-74.36c0.46,1.18,1.5,2,2.69,2.23
			C-30.41-72.35-31.41-73.17-31.91-74.36z M-31.91-74.36c0.46,1.18,1.5,2,2.69,2.23C-30.41-72.35-31.41-73.17-31.91-74.36z
			 M-31.91-74.36c0.46,1.18,1.5,2,2.69,2.23C-30.41-72.35-31.41-73.17-31.91-74.36z"/>
		<path class="st1" d="M-17.12-80.5c0-0.91-0.18-1.82-0.5-2.73c-0.32-0.73-0.77-1.41-1.37-2c-0.55-0.55-1.18-1-1.96-1.27
			c-0.87-0.32-1.82-0.5-2.78-0.55c-1.23-0.05-1.59-0.05-4.69-0.05s-3.46,0-4.73,0.05c-0.91,0-1.82,0.18-2.73,0.55
			c-0.73,0.27-1.41,0.68-1.96,1.27c-0.59,0.55-1.05,1.23-1.32,2c-0.32,0.87-0.5,1.82-0.55,2.73c-0.05,1.27-0.05,1.64-0.05,4.73
			c0,3.1,0,3.46,0.05,4.73c0,0.91,0.18,1.87,0.55,2.73c0.27,0.73,0.73,1.41,1.32,1.96c0.55,0.59,1.23,1.05,1.96,1.37
			c0.87,0.32,1.82,0.5,2.73,0.5c1.23,0.09,1.55,0.09,4.69,0.09s3.51,0,4.73-0.09c0.96,0,1.87-0.18,2.78-0.5
			c1.5-0.59,2.73-1.78,3.32-3.32c0.32-0.87,0.5-1.82,0.55-2.78c0.05-1.27,0.05-1.59,0.05-4.73S-17.07-79.27-17.12-80.5z
			 M-19.16-71.22c0,0.73-0.14,1.46-0.41,2.09c-0.18,0.5-0.46,0.96-0.82,1.32c-0.36,0.36-0.82,0.68-1.32,0.87
			c-0.68,0.27-1.41,0.41-2.09,0.41c-1.18,0.05-1.55,0.05-4.6,0.05s-3.37-0.05-4.6-0.05c-0.73,0-1.46-0.14-2.09-0.41
			c-1-0.41-1.78-1.18-2.14-2.14c-0.27-0.68-0.41-1.41-0.41-2.14c-0.09-1.18-0.09-1.55-0.09-4.55c0-3.05,0-3.37,0.09-4.6
			c0-0.73,0.14-1.46,0.41-2.09c0.41-1,1.18-1.78,2.14-2.14c0.68-0.23,1.41-0.36,2.09-0.41c1.18-0.05,1.55-0.05,4.6-0.05
			s3.37,0,4.6,0.05c0.73,0,1.41,0.14,2.09,0.41c0.5,0.18,0.96,0.46,1.32,0.87c0.36,0.36,0.68,0.82,0.82,1.32
			c0.27,0.68,0.41,1.41,0.41,2.09c0.05,1.18,0.05,1.55,0.05,4.6C-19.12-72.67-19.12-72.4-19.16-71.22z"/>
		<path class="st1" d="M-20.99-81.87L-20.99-81.87c0,0.77-0.59,1.37-1.37,1.37s-1.37-0.59-1.37-1.37c0-0.77,0.59-1.37,1.37-1.37
			S-21.03-82.64-20.99-81.87z"/>
		<path class="st1" d="M-24.31-79.91c-1.05-1.05-2.5-1.73-4.1-1.73c-3.23,0-5.83,2.6-5.83,5.83s2.6,5.83,5.83,5.83
			s5.83-2.6,5.83-5.83C-22.58-77.41-23.26-78.87-24.31-79.91z M-26.95-72.31c-0.77,0.32-1.55,0.36-2.28,0.18
			c-1.14-0.27-2.19-1.05-2.69-2.23c-0.77-1.82,0-3.92,1.78-4.78c0.09-0.05,0.18-0.09,0.27-0.14c1.96-0.82,4.14,0.09,4.96,2.05
			C-24.13-75.31-25.04-73.08-26.95-72.31z"/>
		<path class="st1" d="M-30.14-79.14c-1.73,0.87-2.5,2.96-1.78,4.78C-32.69-76.18-31.91-78.27-30.14-79.14z"/>
		<path class="st1" d="M-24.9-77.23c-0.82-1.91-3-2.82-4.96-2.05C-27.91-80.09-25.72-79.18-24.9-77.23z"/>
	</g>
</g>
<g id="Layer_2_00000054961924018379086510000001409804927836808092_">
	<g id="Layer_1-2_00000135649478733525500960000008090571881934624155_">
		<path class="st1" d="M-73.66-4.58L-73.66-4.58c0,1.54-1.22,2.76-2.71,2.76s-2.76-1.22-2.76-2.71s1.22-2.76,2.71-2.76
			C-74.93-7.29-73.66-6.07-73.66-4.58z"/>
		<rect x="-78.64" y="0.13" class="st1" width="4.61" height="14.84"/>
		<path class="st1" d="M-56.79,5.6l-0.05,9.36h-4.57V7.18c0-2.13-0.81-3.35-2.49-3.35c-1.85,0-2.8,1.27-2.8,3.35v7.78h-4.43V0.13
			h4.48v2.04c0.95-1.54,2.67-2.49,4.48-2.44C-59.05-0.28-56.79,1.62-56.79,5.6z"/>
	</g>
</g>
<g id="Layer_2_00000106828853198683184160000001327077749283094924_">
	<g id="Layer_1-2_00000026842735966678392190000001910792228077804707_">
		<path class="st1" d="M-64.52-43.97c0,5.23-2.89,9.1-7.14,9.1c-1.26,0.05-2.52-0.61-3.22-1.63c0,0-0.75,3.03-0.89,3.64
			c-0.56,1.59-1.35,3.03-2.38,4.34c-0.05,0.09-0.19,0.09-0.23,0.05c-0.05-0.05-0.05-0.05-0.05-0.09c-0.28-1.68-0.28-3.36,0-5.04
			c0.23-1.07,1.68-7.19,1.68-7.19c-0.28-0.65-0.42-1.4-0.42-2.1c0-1.96,1.12-3.41,2.57-3.41c0.98,0,1.77,0.79,1.77,1.77
			c0,0.09,0,0.14,0,0.23c0,1.21-0.75,3.03-1.17,4.67c-0.28,1.07,0.37,2.19,1.49,2.47c0.19,0.05,0.42,0.09,0.61,0.05
			c2.47,0,4.2-3.22,4.2-7.1c0-2.89-1.96-5.04-5.51-5.04c-3.46-0.14-6.35,2.57-6.49,5.98c0,0.09,0,0.23,0,0.33
			c-0.05,0.93,0.28,1.87,0.89,2.61c0.23,0.19,0.28,0.47,0.19,0.75c-0.09,0.23-0.23,0.84-0.28,1.07c-0.05,0.23-0.28,0.42-0.51,0.37
			c-0.05,0-0.09-0.05-0.14-0.05c-1.82-0.75-2.71-2.75-2.71-5.04c-0.09-3.83,3.08-8.31,9.38-8.31
			C-67.84-51.53-64.52-47.89-64.52-43.97z"/>
	</g>
</g>
<g id="Layer_2_00000159443390174732829060000015604401926485294994_">
	<g id="Layer_1-2_00000083808793621095873490000004237061194967401874_">
		<path class="st1" d="M-19.56-10.36l-0.05,3.77c-0.18,0-0.37,0-0.55,0c-2.02,0-3.95-1.01-5.06-2.76v9.34c0,3.82-3.08,6.94-6.9,6.94
			s-6.94-3.08-6.94-6.9s3.08-6.94,6.9-6.94l0,0h0.41v3.4h-0.41c-1.93,0-3.54,1.56-3.54,3.54s1.56,3.54,3.54,3.54h0.05
			c1.93,0,3.54-1.52,3.63-3.5v-15.87h3.31C-24.85-12.84-22.46-10.59-19.56-10.36z"/>
	</g>
</g>
<g id="Layer_2_00000024714977921130314360000017462305603539956130_">
	<g id="Layer_1-2_00000025429508384988519050000008432214549095268014_">
		<path class="st1" d="M-1.01-42.22c-0.72,1.16-1.66,2.16-2.77,2.99c0.39,8.81-6.48,16.23-15.29,16.62
			c-3.27,0.11-6.54-0.78-9.31-2.6c2.99,0.33,5.98-0.5,8.31-2.33c-2.38-0.06-4.49-1.61-5.26-3.88c0.83,0.17,1.72,0.11,2.55-0.11
			c-2.6-0.55-4.43-2.88-4.43-5.54c0.78,0.44,1.66,0.66,2.55,0.72c-2.44-1.66-3.21-4.93-1.72-7.48c2.83,3.49,7.04,5.65,11.58,5.87
			c-0.72-3.05,1.11-6.04,4.16-6.76c1.94-0.44,3.99,0.17,5.37,1.61c1.22-0.28,2.44-0.72,3.49-1.39c-0.44,1.27-1.27,2.38-2.49,3.1
			C-3.12-41.44-2.01-41.78-1.01-42.22z"/>
	</g>
</g>
<g id="Layer_2_00000041987419174024717500000007586982505834010780_">
	<g id="Layer_1-2_00000160150806546017224550000001248741556247049871_">
		<path class="st1" d="M65.79,14.09c-1.69,0.42-3.37,0.84-5.11,1.26c-0.21,0.05-0.37,0.05-0.58,0.11c-0.53,0-0.95-0.26-1.21-0.74
			c-0.26-0.42-0.26-0.95,0-1.37c1.16-1.58,2.32-3.16,3.48-4.74c0.05-0.05,0.11-0.11,0.11-0.16C62.9,8.03,63.58,7.98,64,8.4
			c0.42,0.32,0.79,0.68,1.11,1.16c0.58,0.84,1.11,1.74,1.53,2.63C67.16,13.2,66.8,13.83,65.79,14.09z"/>
		<path class="st1" d="M67.06,20.15c-0.05,0.26-0.11,0.47-0.21,0.68c-0.63,1.37-1.58,2.53-2.74,3.48c-0.26,0.21-0.63,0.32-0.95,0.37
			c-0.37,0.05-0.74-0.16-0.9-0.47c-1.05-1.69-2.11-3.37-3.16-5.06c-0.26-0.47-0.21-1.11,0.21-1.53c0.32-0.42,0.9-0.63,1.42-0.42
			c1.84,0.63,3.69,1.21,5.53,1.84C66.74,19.2,67.06,19.62,67.06,20.15z"/>
		<path class="st1" d="M57.37,22.52h-0.05c0,1,0.05,1.95,0,2.95c0,0.11,0,0.21,0,0.26c-0.11,0.58-0.68,1-1.26,0.9
			c-1.32-0.11-2.53-0.53-3.69-1.16c-0.37-0.16-0.68-0.37-0.95-0.63c-0.05,0-0.05-0.05-0.11-0.11c-0.42-0.42-0.47-1.11-0.05-1.53
			c1.26-1.53,2.53-3.06,3.79-4.53c0.37-0.42,1-0.58,1.53-0.32c0.53,0.21,0.84,0.68,0.79,1.21C57.37,19.57,57.37,22.52,57.37,22.52z"
			/>
		<path class="st1" d="M55.26,16.04c0,0.58-0.42,1.11-0.95,1.26c-1.84,0.58-3.58,1.11-5.37,1.69c-0.11,0.05-0.26,0.11-0.37,0.11
			c-0.68,0.05-1.32-0.42-1.37-1.16c-0.05-0.16-0.05-0.37-0.11-0.53c-0.05-0.42-0.11-0.9-0.11-1.32l0,0
			c0.11-0.84,0.21-1.74,0.42-2.53c0.26-1.05,0.9-1.37,1.84-0.95c1.74,0.68,3.42,1.37,5.11,2.11C54.94,14.88,55.31,15.46,55.26,16.04
			z"/>
		<path class="st1" d="M57.37,10.62c0,0.53,0,1-0.05,1.53c0,0.53-0.37,0.95-0.84,1.11c-0.47,0.16-1,0-1.37-0.37
			c-0.21-0.21-0.42-0.42-0.58-0.68l-5.16-8.22C49.3,3.87,49.2,3.77,49.2,3.61c-0.26-0.58,0-1.21,0.63-1.48
			c1.21-0.63,2.48-1.11,3.79-1.32c0.58-0.16,1.21-0.21,1.79-0.26c0.11,0,0.21,0,0.32,0c0.63,0.05,1.11,0.63,1.05,1.26
			C57,4.77,57.21,7.67,57.37,10.62L57.37,10.62z"/>
	</g>
</g>
<g id="Layer_2_00000138572464227535502700000017136644208356098229_">
	<g id="Layer_1-2_00000027574965261062547080000012109546285489071236_">
		<path class="st1" d="M-115.46-36.08c0-2.77-2.21-5.03-4.98-5.03c-2.43-0.06-4.92,0-7.41,0h-9.96c-2.71,0.06-4.92,2.27-4.92,4.98
			c-0.11,3.21-0.11,6.36-0.06,9.51c0.06,2.77,2.27,4.98,4.98,4.98c2.88,0.06,5.75,0,8.68,0l0,0h8.68c2.77-0.06,4.98-2.27,4.98-5.03
			C-115.41-29.77-115.41-32.93-115.46-36.08z M-132.67-27.23v-8.3l7.14,4.15L-132.67-27.23z"/>
	</g>
</g>
<g id="Layer_2_00000065780969421637336170000007510342270265000630_">
	<g id="Layer_1-2_00000181073315795551216410000007735202085336837540_">
		<path class="st1" d="M33.34,14.12c-0.12-1.03-0.49-2.01-1.09-2.86c-0.61-0.91-1.4-1.64-2.43-2.07c-1.03-0.43-2.13-0.67-3.22-0.67
			c-1.82-0.06-3.65,0.61-4.92,1.88c-1.34,1.52-2.01,3.47-1.88,5.47c0,2.55,0.67,4.38,2.13,5.53c1.4,1.09,3.1,1.7,4.86,1.7
			c1.95,0.12,3.83-0.61,5.17-2.01c0.73-0.67,1.16-1.52,1.34-2.49h-3.65c-0.18,0.36-0.43,0.67-0.73,0.97
			c-0.55,0.43-1.28,0.67-2.01,0.61c-0.67,0-1.4-0.18-2.01-0.49c-0.97-0.67-1.52-1.76-1.46-2.92h10.03
			C33.47,15.95,33.47,15.04,33.34,14.12z M23.5,14.49c0.06-0.79,0.43-1.52,0.97-2.13c0.61-0.55,1.34-0.85,2.19-0.79
			c0.79,0,1.52,0.24,2.13,0.73c0.61,0.55,0.97,1.34,0.97,2.13H23.5V14.49z"/>
		<rect x="22.34" y="5.13" class="st1" width="8.09" height="1.88"/>
		<path class="st1" d="M18.02,14.37c-0.49-0.79-1.28-1.34-2.13-1.64c0.55-0.24,1.03-0.61,1.4-1.03c0.61-0.79,0.91-1.76,0.85-2.74
			c0.06-1.03-0.24-2.01-0.85-2.86c-1.22-1.4-3.04-2.19-4.86-2.01h-9v18.66h8.39c0.91,0,1.76-0.06,2.61-0.24
			c0.79-0.12,1.52-0.49,2.13-0.91c0.55-0.43,0.97-0.91,1.34-1.46c0.55-0.91,0.85-1.95,0.85-2.98
			C18.81,16.19,18.57,15.22,18.02,14.37z M7.14,7.38h4.07c0.73,0,1.46,0.06,2.19,0.3c0.67,0.3,1.09,0.97,1.03,1.7
			c0.06,0.67-0.24,1.28-0.73,1.64c-0.61,0.3-1.28,0.49-2.01,0.49H7.14V7.38z M13.59,19.23c-0.61,0.24-1.22,0.36-1.88,0.3H7.14v-4.92
			h4.62c0.61,0,1.28,0.06,1.88,0.3c0.79,0.36,1.28,1.16,1.22,1.95C14.92,17.83,14.44,18.74,13.59,19.23z"/>
	</g>
</g>
</svg>
