<?xml version="1.0" encoding="UTF-8"?><svg height="1019" viewBox="0 0 1440 1019" width="1440" xmlns="http://www.w3.org/2000/svg"><g fill="#3869e5" fill-rule="evenodd" opacity=".15"><path d="m23.5924444 377.344069 17.8837827 26.667782 58.3071512-87.684007h-35.5436033zm17.8897076 29.748344-19.9480253-29.744788 41.7896554-62.731336h39.6507589z"/><path d="m.00047399 342.035661v1.711555h6.12992365l-6.12992365 9.226277v3.090045l9.31990132-14.027877z"/><path d="m16.1513357 328.675576-16.1513357 24.286539v3.088859l17.0685135-25.663843h35.7746752l-49.11759814 73.626497-3.72559056-5.555442v3.072265l3.72914551 5.560184 52.31231579-78.415059z"/><path d="m.00047399 274.843259v3.090044l21.60226331-32.485172 17.8837827 26.666596-39.48604601 59.272668v3.084117l41.54317871-62.359155-19.9480253-29.744788z"/><path d="m56.9476188 305.711106h42.8277016l-21.5145745-32.078618zm46.0342692 1.71037h-49.2242469l24.4971799-36.86955z"/><path d="m10.2345907 319.072377h35.7746752l31.2290756-46.957531-17.8861527-26.668967zm36.691853 1.71037h-39.88894059l52.31113079-78.413874 19.9456553 29.742417z"/><path d="m23.5924444 528.297058 17.8837827 26.667782 58.3071512-87.684007h-35.5436033zm17.8897076 29.748344-19.9480253-29.744788 41.7896554-62.731336h39.6507589z"/><path d="m.00047399 492.988413v1.711555h6.12992365l-6.12992365 9.225092v3.09123l9.31990132-14.027877z"/><path d="m16.1513357 479.629394-16.1513357 24.285354v3.088859l17.0685135-25.663843h35.7746752l-49.11759814 73.626498-3.72559056-5.554257v3.07108l3.72914551 5.560183 52.31231579-78.413874z"/><path d="m.00047399 425.795655v3.090044l21.60226331-32.485172 17.8837827 26.666597-39.48604601 59.271482v3.084118l41.54317871-62.359156-19.9480253-29.743603z"/><path d="m56.9476188 456.664214h42.8277016l-21.5145745-32.078619zm46.0342692 1.710369h-49.2242469l24.4971799-36.870735z"/><path d="m10.2345907 470.023707h35.7746752l31.2290756-46.957532-17.8861527-26.666596zm36.691853 1.710369h-39.88894059l52.31113079-78.412688 19.9456553 29.741231z"/><path d="m130.843001 276.018116 17.883783 26.667781 58.307151-87.685192h-35.543603zm17.889708 29.748343-19.948026-29.744787 41.789656-62.731336h39.650759z"/><path d="m70.5534897 242.420551 21.5133895 32.078619 21.3143118-32.078619zm21.5204994 35.160366-24.7270668-36.870735h49.2242467z"/><path d="m93.0897576 276.018116 17.8861524 26.668966 49.118783-73.626498h-35.774675zm17.8897074 29.745972-19.9456551-29.742416 32.3690301-48.671457h39.887756z"/><path d="m70.5459058 231.804406h35.5424182l40.648516-61.01741-17.883783-26.666596zm36.4584112 1.71037h-39.6507588l61.4923888-92.474938 19.948025 29.744787z"/><path d="m164.198175 204.385271h42.827702l-21.514574-32.078618zm46.03427 1.71037h-49.224247l24.49718-36.870735z"/><path d="m117.485266 217.744764h35.774675l31.229076-46.957531-17.886153-26.668967zm36.691853 1.71037h-39.888941l52.311131-78.413874 19.945655 29.742417z"/><path d="m130.843001 426.971105 17.883783 26.665411 58.307151-87.681636h-35.543603zm17.889708 29.745972-19.948026-29.742416 41.789656-62.731337h39.650759z"/><path d="m70.5534897 393.373422 21.5133895 32.078618 21.3143118-32.078618zm21.5204994 35.160366-24.7270668-36.870736h49.2242467z"/><path d="m93.0897576 426.971105 17.8861524 26.667781 49.118783-73.625313h-35.774675zm17.8897074 29.744787-19.9456551-29.741231 32.3690301-48.671457h39.887756z"/><path d="m70.5459058 382.757277h35.5424182l40.648516-61.016225-17.883783-26.667782zm36.4584112 1.710369h-39.6507588l61.4923888-92.474938 19.948025 29.744788z"/><path d="m164.198175 355.33826h42.827702l-21.514574-32.078618zm46.03427 1.71037h-49.224247l24.49718-36.870735z"/><path d="m117.485266 368.697753h35.774675l31.229076-46.957531-17.886153-26.668967zm36.691853 1.71037h-39.888941l52.311131-78.413874 19.945655 29.742417z"/><path d="m130.843001 577.922434 17.883783 26.667782 58.307151-87.684007h-35.543603zm17.889708 29.748344-19.948026-29.744788 41.789656-62.731336h39.650759z"/><path d="m70.5534897 544.326411 21.5133895 32.078618 21.3143118-32.078618zm21.5204994 35.160366-24.7270668-36.870736h49.2242467z"/><path d="m93.0897576 577.922434 17.8861524 26.668967 49.118783-73.626498h-35.774675zm17.8897074 29.745973-19.9456551-29.742417 32.3690301-48.671457h39.887756z"/><path d="m70.5459058 533.710266h35.5424182l40.648516-61.016225-17.883783-26.667782zm36.4584112 1.710369h-39.6507588l61.4923888-92.474938 19.948025 29.744788z"/><path d="m164.198175 506.291249h42.827702l-21.514574-32.080989zm46.03427 1.71037h-49.224247l24.49718-36.871921z"/><path d="m117.485266 519.650742h35.774675l31.229076-46.957531-17.886153-26.668967zm36.691853 1.71037h-39.888941l52.311131-78.413874 19.945655 29.742417z"/><path d="m177.796581 281.429782h35.542418l40.648516-61.01741-17.883783-26.665411zm36.458411 1.71037h-39.650759l61.492389-92.473753 19.948026 29.743602z"/><path d="m271.448851 254.010647h42.827701l-21.514574-32.078618zm46.034269 1.71037h-49.224247l24.49718-36.86955z"/><path d="m224.735823 267.37014h35.774675l31.229075-46.957531-17.886152-26.666596zm36.691853 1.71037h-39.888941l52.311131-78.412688 19.945655 29.741231z"/><path d="m238.093676 325.274275 17.883783 26.667781 58.307151-87.684006h-35.543603zm17.889708 29.748343-19.948025-29.744787 41.789655-62.731336h39.650759z"/><path d="m177.804046 291.676592 21.51339 32.080989 21.314312-32.080989zm21.5205 35.161551-24.727067-36.871921h49.224247z"/><path d="m200.340433 325.274275 17.886152 26.668966 49.118784-73.626497h-35.775861zm17.889707 29.745973-19.945655-29.742417 32.369031-48.671457h39.887755z"/><path d="m238.093676 476.227264 17.883783 26.667781 58.307151-87.684006h-35.543603zm17.889708 29.748343-19.948025-29.744787 41.789655-62.731336h39.650759z"/><path d="m177.804046 442.629581 21.51339 32.078618 21.314312-32.078618zm21.5205 35.160366-24.727067-36.870736h49.224247z"/><path d="m200.340433 476.227264 17.886152 26.668966 49.118784-73.626497h-35.775861zm17.889707 29.745973-19.945655-29.742417 32.369031-48.671457h39.887755z"/><path d="m177.796581 432.015214h35.542418l40.648516-61.016225-17.883783-26.667782zm36.458411 1.71037h-39.650759l61.492389-92.474939 19.948026 29.744788z"/><path d="m271.448851 404.594419h42.827701l-21.514574-32.078618zm46.034269 1.71037h-49.224247l24.49718-36.870735z"/><path d="m224.735823 417.955572h35.774675l31.229075-46.957532-17.886152-26.668966zm36.691853 1.710369h-39.888941l52.311131-78.413873 19.945655 29.742417z"/><path d="m238.093676 627.180253 17.883783 26.667781 58.307151-87.684006h-35.543603zm17.889708 29.748343-19.948025-29.744787 41.789655-62.731336h39.650759z"/><path d="m177.804046 593.58257 21.51339 32.078618 21.314312-32.078618zm21.5205 35.160366-24.727067-36.870736h49.224247z"/><path d="m200.340433 627.180253 17.886152 26.668966 49.118784-73.626497h-35.775861zm17.889707 29.745973-19.945655-29.742417 32.369031-48.671457h39.887755z"/><path d="m177.796581 582.966543h35.542418l40.648516-61.016225-17.883783-26.666596zm36.458411 1.71037h-39.650759l61.492389-92.473753 19.948026 29.743602z"/><path d="m271.448851 555.547408h42.827701l-21.514574-32.078618zm46.034269 1.71037h-49.224247l24.49718-36.870735z"/><path d="m224.735823 568.906901h35.774675l31.229075-46.957531-17.886152-26.666596zm36.691853 1.71037h-39.888941l52.311131-78.412689 19.945655 29.741232z"/><path d="m345.344233 374.901429 17.883783 26.667781 58.307151-87.685192h-35.543603zm17.889708 29.748343-19.948026-29.744787 41.789656-62.731336h39.650759z"/><path d="m285.054722 341.303746 21.513389 32.078619 21.314312-32.078619zm21.520499 35.160366-24.727067-36.870736h49.224247z"/><path d="m307.59099 374.901429 17.886152 26.668967 49.118783-73.626498h-35.774675zm17.889707 29.745973-19.945655-29.742417 32.36903-48.671457h39.888941z"/><path d="m285.047138 330.687601h35.542418l40.648516-61.017411-17.883783-26.666596zm36.458411 1.71037h-39.650759l61.492389-92.474939 19.948025 29.744788z"/><path d="m378.699407 303.268466h42.827702l-21.514574-32.078619zm46.035454 1.71037h-49.225431l24.49718-36.870736z"/><path d="m331.986498 316.627959h35.774675l31.229076-46.957531-17.886153-26.668967zm36.691853 1.710369h-39.888941l52.311131-78.413873 19.945655 29.742417z"/><path d="m392.006307 380.448337h35.542418l40.648516-61.016225-17.883783-26.666596zm36.458411 1.71037h-39.650759l61.492389-92.473753 19.948025 29.743602z"/><path d="m485.658576 353.029202h42.827702l-21.514574-32.078619zm46.034269 1.71037h-49.224246l24.49718-36.870736z"/><path d="m438.945548 366.388695h35.774676l31.229075-46.957532-17.886153-26.666596zm36.691853 1.710369h-39.88894l52.311131-78.412688 19.945655 29.742417z"/><path d="m345.344233 525.854418 17.883783 26.665411 58.307151-87.681636h-35.543603zm17.889708 29.745973-19.948026-29.742417 41.789656-62.731336h39.650759z"/><path d="m285.054722 492.256735 21.513389 32.078619 21.314312-32.078619zm21.520499 35.160366-24.727067-36.870736h49.224247z"/><path d="m307.59099 525.854418 17.886152 26.667781 49.118783-73.625312h-35.774675zm17.889707 29.744787-19.945655-29.741231 32.36903-48.671457h39.888941z"/><path d="m285.047138 481.64059h35.542418l40.648516-61.016225-17.883783-26.667782zm36.458411 1.71037h-39.650759l61.492389-92.474939 19.948025 29.744788z"/><path d="m378.699407 454.221455h42.827702l-21.514574-32.078619zm46.035454 1.71037h-49.225431l24.49718-36.870736z"/><path d="m331.986498 467.580948h35.774675l31.229076-46.957531-17.886153-26.668967zm36.691853 1.710369h-39.888941l52.311131-78.413873 19.945655 29.742417z"/><path d="m452.303402 424.693812 17.883783 26.667781 58.307151-87.684006h-35.543603zm17.889708 29.748343-19.948026-29.744787 41.790841-62.731336h39.649574z"/><path d="m392.013772 391.096248 21.51339 32.078618 21.314312-32.078618zm21.5205 35.160365-24.727067-36.870735h49.224246z"/><path d="m414.550159 424.693812 17.886152 26.668967 49.117598-73.626498h-35.774675zm17.889707 29.745973-19.945655-29.742417 32.36903-48.671457h39.887756z"/><path d="m452.303402 575.64692 17.883783 26.66541 58.307151-87.681636h-35.543603zm17.889708 29.745972-19.948026-29.742417 41.790841-62.731336h39.649574z"/><path d="m392.013772 542.049237 21.51339 32.078618 21.314312-32.078618zm21.5205 35.160365-24.727067-36.870735h49.224246z"/><path d="m414.550159 575.64692 17.886152 26.667781 49.117598-73.625313h-35.774675zm17.889707 29.744787-19.945655-29.741232 32.36903-48.671456h39.887756z"/><path d="m392.006307 531.433092h35.542418l40.648516-61.016226-17.883783-26.667781zm36.458411 1.710369h-39.650759l61.492389-92.474938 19.948025 29.744788z"/><path d="m485.658576 504.013956h42.827702l-21.514574-32.078618zm46.034269 1.71037h-49.224246l24.49718-36.870735z"/><path d="m438.945548 517.373449h35.774676l31.229075-46.957531-17.886153-26.668967zm36.691853 1.71037h-39.88894l52.311131-78.413874 19.945655 29.742417z"/><path d="m559.554077 323.366318 17.883783 26.667781 58.307151-87.685192h-35.543603zm17.889708 29.748343-19.948025-29.744787 41.79084-62.731337h39.649574z"/><path d="m499.264447 289.768635 21.51339 32.080989 21.314312-32.080989zm21.5205 35.161551-24.727067-36.871921h49.224247z"/><path d="m521.800715 323.366318 17.886153 26.668966 49.118783-73.626498h-35.774675zm17.889708 29.745972-19.945655-29.742416 32.36903-48.671457h39.888941z"/><path d="m499.256863 279.154149h35.542419l40.648515-61.016225-17.883782-26.667781zm36.458412 1.71037h-39.650759l61.492389-92.474938 19.948025 29.744787z"/><path d="m592.909252 251.733355h42.827701l-21.514574-32.078619zm46.034269 1.710369h-49.224247l24.49718-36.870735z"/><path d="m546.196224 265.094625h35.774675l31.229075-46.957531-17.886152-26.668966zm36.691853 1.71037h-39.888941l52.311131-78.413874 19.945655 29.742417z"/><path d="m559.554077 474.319307 17.883783 26.667781 58.307151-87.684007h-35.543603zm17.889708 29.748343-19.948025-29.744787 41.79084-62.731337h39.649574z"/><path d="m499.264447 440.721624 21.51339 32.078618 21.314312-32.078618zm21.5205 35.160366-24.727067-36.870736h49.224247z"/><path d="m521.800715 474.319307 17.886153 26.668966 49.118783-73.626498h-35.774675zm17.889708 29.745972-19.945655-29.742416 32.36903-48.671457h39.888941z"/><path d="m499.256863 430.105479h35.542419l40.648515-61.016225-17.883782-26.666597zm36.458412 1.710369h-39.650759l61.492389-92.473753 19.948025 29.743603z"/><path d="m592.909252 402.686344h42.827701l-21.514574-32.078619zm46.034269 1.710369h-49.224247l24.49718-36.870735z"/><path d="m546.196224 416.045955h35.774675l31.229075-46.957531-17.886152-26.666596zm36.691853 1.71037h-39.888941l52.311131-78.412689 19.945655 29.741232z"/><path d="m559.554077 625.272177 17.883783 26.667782 58.307151-87.684007h-35.543603zm17.889708 29.748343-19.948025-29.744787 41.79084-62.731336h39.649574z"/><path d="m499.264447 591.674613 21.51339 32.078618 21.314312-32.078618zm21.5205 35.160366-24.727067-36.870736h49.224247z"/><path d="m521.800715 625.272177 17.886153 26.668967 49.118783-73.626498h-35.774675zm17.889708 29.745973-19.945655-29.742417 32.36903-48.671457h39.888941z"/><path d="m499.256863 581.058468h35.542419l40.648515-61.016225-17.883782-26.667782zm36.458412 1.710369h-39.650759l61.492389-92.474938 19.948025 29.744788z"/><path d="m592.909252 553.639451h42.827701l-21.514574-32.078618zm46.034269 1.71037h-49.224247l24.49718-36.870736z"/><path d="m546.196224 566.998944h35.774675l31.229075-46.957531-17.886152-26.668967zm36.691853 1.71037h-39.888941l52.311131-78.413874 19.945655 29.742417z"/><path d="m606.507539 328.779644h35.542418l40.648516-61.017411-17.883783-26.666596zm36.458411 1.71037h-39.650759l61.492389-92.474939 19.948025 29.744788z"/><path d="m700.159808 301.360509h42.827702l-21.514575-32.078619zm46.034269 1.710369h-49.224246l24.49718-36.870735z"/><path d="m653.44678 314.720002h35.774675l31.229076-46.957532-17.886153-26.668966zm36.691853 1.710369h-39.88894l52.31113-78.413873 19.945656 29.742417z"/><path d="m666.804634 372.624018 17.883783 26.667781 58.307151-87.684007h-35.542418zm17.890893 29.748343-19.949211-29.744787 41.790841-62.731337h39.649573z"/><path d="m606.515004 339.026453 21.51339 32.078619 21.314312-32.078619zm21.520499 35.160366-24.727066-36.870735h49.224246z"/><path d="m629.05139 372.624018 17.886153 26.668966 49.118783-73.626498h-35.774675zm17.889708 29.745972-19.945655-29.742416 32.36903-48.671457h39.887756z"/><path d="m666.804634 523.577007 17.883783 26.667781 58.307151-87.684007h-35.542418zm17.890893 29.748343-19.949211-29.744788 41.790841-62.731336h39.649573z"/><path d="m606.515004 489.979442 21.51339 32.078619 21.314312-32.078619zm21.520499 35.160366-24.727066-36.870735h49.224246z"/><path d="m629.05139 523.577007 17.886153 26.668966 49.118783-73.626498h-35.774675zm17.889708 29.745972-19.945655-29.742417 32.36903-48.671456h39.887756z"/><path d="m606.507539 479.363297h35.542418l40.648516-61.016225-17.883783-26.667781zm36.458411 1.71037h-39.650759l61.492389-92.474938 19.948025 29.744787z"/><path d="m700.159808 451.944162h42.827702l-21.514575-32.078618zm46.034269 1.71037h-49.224246l24.49718-36.870736z"/><path d="m653.44678 465.303774h35.774675l31.229076-46.957532-17.886153-26.668966zm36.691853 1.710369h-39.88894l52.31113-78.413873 19.945656 29.742416z"/><path d="m452.449629 273.573816 17.883783 26.667781 58.305966-87.684006h-35.542418zm17.889708 29.748343-19.948026-29.744787 41.789656-62.731336h39.650759z"/><path d="m392.159051 239.976133 21.514575 32.080989 21.313127-32.080989zm21.5205 35.161551-24.727067-36.87192h49.224247z"/><path d="m414.696267 273.573816 17.886153 26.668967 49.117598-73.626498h-35.774675zm17.889708 29.745973-19.945656-29.742417 32.367846-48.671457h39.888941z"/><path d="m666.804634 674.529996 17.883783 26.66541 58.307151-87.681636h-35.542418zm17.890893 29.745972-19.949211-29.742417 41.790841-62.731336h39.649573z"/><path d="m606.515004 640.932431 21.51339 32.078619 21.314312-32.078619zm21.520499 35.160366-24.727066-36.870735h49.224246z"/><path d="m629.05139 674.529996 17.886153 26.667781 49.118783-73.626498h-35.774675zm17.889708 29.744787-19.945655-29.741232 32.36903-48.673827h39.887756z"/><path d="m606.507539 630.316286h35.542418l40.648516-61.016225-17.883783-26.667781zm36.458411 1.71037h-39.650759l61.492389-92.474938 19.948025 29.744787z"/><path d="m700.159808 602.897151h42.827702l-21.514575-32.078618zm46.034269 1.71037h-49.224246l24.49718-36.870736z"/><path d="m653.44678 616.256644h35.774675l31.229076-46.957531-17.886153-26.668967zm36.691853 1.71037h-39.88894l52.31113-78.413874 19.945656 29.742417z"/><path d="m774.055191 422.249512 17.883782 26.667782 58.307152-87.684007h-35.542419zm17.889707 29.748344-19.948025-29.744788 41.79084-62.731336h39.649574z"/><path d="m713.765679 388.65183 21.51339 32.078618 21.314312-32.078618zm21.5205 35.160365-24.727067-36.870735h49.224247z"/><path d="m736.302895 422.249512 17.884968 26.668967 49.118783-73.626498h-35.774675zm17.888523 29.745973-19.944471-29.742417 32.367846-48.671457h39.888941z"/><path d="m713.758214 378.037462h35.542418l40.648516-61.016225-17.883783-26.667781zm36.458411 1.71037h-39.650759l61.492389-92.474938 19.948025 29.744787z"/><path d="m807.410483 350.616549h42.827702l-21.514574-32.078618zm46.03427 1.71037h-49.224247l24.49718-36.870735z"/><path d="m760.697455 363.97782h35.774676l31.229075-46.957531-17.886152-26.668967zm36.691853 1.71037h-39.88894l52.311131-78.413874 19.945655 29.742417z"/><path d="m774.055191 573.202501 17.883782 26.667782 58.307152-87.684007h-35.542419zm17.889707 29.748344-19.948025-29.744788 41.79084-62.731336h39.649574z"/><path d="m713.765679 539.604819 21.51339 32.078618 21.314312-32.078618zm21.5205 35.160365-24.727067-36.870735h49.224247z"/><path d="m736.302895 573.202501 17.884968 26.668967 49.118783-73.626498h-35.774675zm17.888523 29.745973-19.944471-29.742417 32.367846-48.671457h39.888941z"/><path d="m713.758214 528.988792h35.542418l40.648516-61.016225-17.883783-26.666596zm36.458411 1.71037h-39.650759l61.492389-92.473753 19.948025 29.743602z"/><path d="m807.410483 501.569538h42.827702l-21.514574-32.078618zm46.03427 1.71037h-49.224247l24.49718-36.870735z"/><path d="m760.697455 514.92915h35.774676l31.229075-46.957532-17.886152-26.666596zm36.691853 1.710369h-39.88894l52.311131-78.412688 19.945655 29.741232z"/><path d="m23.5924444 75.2727436 17.8837827 26.6677814 58.3071512-87.6851919h-35.5436033zm17.8897076 29.7483434-19.9480253-29.7447875 41.7896554-62.7313361h39.6507589z"/><path d="m.00047399 39.9637429v1.711555h6.12992365l-6.12992365 9.2250919v3.0912296l9.31990132-14.0278765z"/><path d="m16.1513357 26.6047241-16.1513357 24.2853537v3.0900443l17.0685135-25.663843h35.7746752l-49.11759814 73.6253129-3.72559056-5.5542571v3.0710797l3.72914551 5.5601834 52.31231579-78.4138739z"/><path d="m19.405421.18549748-19.4053025 29.12962332v3.0829326l21.4600652-32.21255592z"/><path d="m97.4589131.18549748 2.3166443 3.45392751h-42.8277016l2.2953145-3.45392751h-2.0535778l-3.4317144 5.16548252h49.2242469l-3.4637092-5.16548252z"/><path d="m57.1919625.18549748-11.1826966 16.81448712h-35.7746752l11.2170611-16.81448712h-2.0559477l-12.35820099 18.52485692h39.88894059l12.3190966-18.52485692z"/><path d="m23.5924444 226.225614 17.8837827 26.667781 58.3071512-87.685191h-35.5436033zm17.8897076 29.748343-19.9480253-29.744787 41.7896554-62.731336h39.6507589z"/><path d="m.00047399 190.91768v1.71037h6.12992365l-6.12992365 9.226277v3.09123l9.31990132-14.027877z"/><path d="m16.1513357 177.557595-16.1513357 24.286539v3.088859l17.0685135-25.663843h35.7746752l-49.11759814 73.626497-3.72559056-5.554256v3.071079l3.72914551 5.558998 52.31231579-78.413873z"/><path d="m.00047399 123.723026v3.090044l21.60226331-32.4851719 17.8837827 26.6665959-39.48604601 59.272668v3.084117l41.54317871-62.359155-19.9480253-29.7447879z"/><path d="m56.9476188 154.59277h42.8277016l-21.5145745-32.078619zm46.0342692 1.710369h-49.2242469l24.4971799-36.870735z"/><path d="m10.2345907 167.952262h35.7746752l31.2290756-46.957531-17.8861527-26.6689664zm36.691853 1.71037h-39.88894059l52.31113079-78.4138736 19.9456553 29.7424166z"/><path d="m149.009995.18549748-.283211.42670347-.286766-.42670347h-2.058318l2.352194 3.50726544 2.332049-3.50726544z"/><path d="m111.261847.18549748-.285581.42907404-.287951-.42907404h-2.060688l2.351009 3.50608015 2.339159-3.50608015z"/><path d="m130.843001 124.89812 17.883783 26.667781 58.307151-87.6840065h-35.543603zm17.889708 29.748343-19.948026-29.744787 41.789656-62.7313365h39.650759z"/><path d="m70.5534897 91.300437 21.5133895 32.080989 21.3143118-32.080989zm21.5204994 35.161551-24.7270668-36.8719208h49.2242467z"/><path d="m93.0897576 124.89812 17.8861524 26.668966 49.118783-73.6264975h-35.774675zm17.8897074 29.745973-19.9456551-29.742417 32.3690301-48.6714572h39.887756z"/><path d="m133.670374.18549748 13.065636 19.48375442-40.648515 61.0174105h-35.5412337l53.5304797-80.50116492h-2.055948l-54.6668793 82.21153462h39.6507583l41.789656-62.7313361-13.064452-19.48019852z"/><path d="m164.198175 53.2669346h42.827702l-21.514574-32.0809889zm46.03427 1.7103698h-49.224247l24.49718-36.8719207z"/><path d="m171.421129.18549748 13.068006 19.48375442-31.229075 46.9575312h-35.774676l44.324337-66.44128562h-2.055948l-45.465476 68.15165542h39.88894l32.367846-48.6714569-13.063267-19.48019852z"/><path d="m289.080469.18549748-33.394042 50.21944222-17.883783-26.6677814 15.689192-23.55166082h-2.055948l-15.691562 23.55521662 19.948026 29.7447875 35.442879-53.30000412z"/><path d="m213.666173.18549748-14.64048 22.03449292-14.776754-22.03449292h-2.059503l16.843367 25.11624012 16.686948-25.11624012z"/><path d="m251.438732.18549748-33.504245 50.22062742-17.886153-26.6689666 15.664307-23.55166082h-2.054762l-15.665493 23.55521662 19.945656 29.7436022 35.556638-53.29881882z"/><path d="m237.80217 174.690503 17.883783 26.667781 58.307151-87.684006h-35.543603zm17.889708 29.748343-19.948026-29.744787 41.789656-62.731336h39.650759z"/><path d="m177.51254 141.092939 21.51339 32.080989 21.314312-32.080989zm21.5205 35.161551-24.727067-36.871921h49.224247z"/><path d="m200.048927 174.690503 17.886152 26.668967 49.118783-73.626498h-35.77586zm17.889707 29.745973-19.945655-29.742417 32.36903-48.671457h39.887756z"/><path d="m177.505075 130.478453h35.542418l40.648516-61.0162253-17.883783-26.6677814zm36.458411 1.71037h-39.650759l61.492389-92.4749387 19.948025 29.7447875z"/><path d="m271.157345 103.059318h42.827701l-21.514574-32.0809892zm46.034269 1.710369h-49.224247l24.49718-36.8719202z"/><path d="m224.444435 116.418929h35.774675l31.229076-46.957531-17.886153-26.6689667zm36.691853 1.71037h-39.888941l52.311131-78.4138738 19.945655 29.7424169z"/><path d="m345.052845 73.3646679 17.883783 26.6677811 58.307151-87.6851915h-35.543603zm17.889708 29.7483431-19.948025-29.7447872 41.789655-62.7313361h39.650759z"/><path d="m284.763215 39.7669852 21.51339 32.0786184 21.314312-32.0786184zm21.5205 35.1603656-24.727067-36.8707354h49.224247z"/><path d="m307.299602 73.3646679 17.886153 26.6689671 49.118783-73.6264983h-35.774676zm17.889707 29.7459731-19.945655-29.7424172 32.369031-48.6714568h39.88894z"/><path d="m339.594571.18549748-19.296284 28.96605372h-35.542418l19.260734-28.96605372h-2.054763l-20.398319 30.67642342h39.649574l20.436239-30.67642342z"/><path d="m420.198386.18549748 1.036861 1.54680007h-42.827701l1.027381-1.54680007h-2.052393l-2.164966 3.25835508h49.225432l-2.185111-3.25835508z"/><path d="m377.383127.18549748-9.913579 14.90617442h-35.774675l9.944388-14.90617442h-2.055948l-11.084342 16.61654412h39.887755l11.051164-16.61654412z"/><path d="m345.052845 224.317657 17.883783 26.665411 58.307151-87.682822h-35.543603zm17.889708 29.745973-19.948025-29.742417 41.789655-62.731336h39.650759z"/><path d="m284.763215 190.719974 21.51339 32.078619 21.314312-32.078619zm21.5205 35.160366-24.727067-36.870736h49.224247z"/><path d="m307.299602 224.317657 17.886153 26.667781 49.118783-73.625312h-35.774676zm17.889707 29.744787-19.945655-29.741231 32.369031-48.671457h39.88894z"/><path d="m284.75575 180.103947h35.542418l40.648516-61.01741-17.883783-26.6665961zm36.458411 1.71037h-39.650759l61.492389-92.474938 19.948026 29.744787z"/><path d="m378.40802 152.684694h42.827701l-21.514574-32.078619zm46.035454 1.71037h-49.225432l24.49718-36.870736z"/><path d="m331.694992 166.044305h35.774675l31.229075-46.957531-17.886152-26.6689666zm36.691853 1.71037h-39.888941l52.311131-78.4138737 19.945655 29.7424167z"/><path d="m469.368242.18549748.825934 1.23151362.818824-1.23151362z"/><path d="m431.614999.18549748.823564 1.22914304.820009-1.22914304z"/><path d="m452.303402 122.620827 17.883783 26.667781 58.307151-87.6851914h-35.543603zm17.889708 29.748343-19.948026-29.744787 41.790841-62.7313362h39.649574z"/><path d="m392.013772 89.0231443 21.51339 32.0809887 21.314312-32.0809887zm21.5205 35.1615507-24.727067-36.8719205h49.224246z"/><path d="m414.550159 122.620827 17.886152 26.668967 49.117598-73.6264982h-35.774675zm17.889707 29.745973-19.945655-29.742417 32.36903-48.6714569h39.887756z"/><path d="m456.657745.18549748 11.538192 17.20681732-40.64733 61.0162252h-35.542419l52.01607-78.22304252h-2.055948l-53.151284 79.93459752h39.649573l41.789656-62.7313361-11.537007-17.20326142z"/><path d="m485.658576 50.9896419h42.827702l-21.514574-32.0809889zm46.034269 1.7103698h-49.224246l24.49718-36.8719207z"/><path d="m494.408737.18549748 11.540562 17.20681732-31.229075 46.9563459h-35.774676l42.805187-64.16316322h-2.057132l-43.945142 65.87471822h39.88894l32.367846-48.6714568-11.537007-17.20326142z"/><path d="m392.006307 229.361647h35.542418l40.648516-61.016225-17.883783-26.667781zm36.458411 1.71037h-39.650759l61.492389-92.474938 19.948025 29.744787z"/><path d="m485.658576 201.940853h42.827702l-21.514574-32.078618zm46.034269 1.71037h-49.224246l24.49718-36.86955z"/><path d="m438.945548 215.302124h35.774676l31.229075-46.957531-17.886153-26.668967zm36.691853 1.71037h-39.88894l52.311131-78.413874 19.945655 29.742417z"/><path d="m609.207407.18549748-31.769429 47.77656482-17.883782-26.6665961 14.062208-21.10996872h-2.054763l-14.065763 21.11352462 19.948025 29.7436022 33.818267-50.85712682z"/><path d="m533.794178.18549748-13.017052 19.59043032-13.137921-19.59043032h-2.059502l15.204533 22.67217752 15.064705-22.67217752z"/><path d="m571.561404.18549748-31.873707 47.77775012-17.886152-26.6677814 14.038508-21.10996872h-2.053577l-14.042064 21.11352462 19.945655 29.7424169 33.927285-50.85594152z"/><path d="m659.427277.18549748-17.6693 26.52317632h-35.542418l17.63612-26.52317632h-2.053577l-18.774891 28.23354602h39.649574l18.81044-28.23354602z"/><path d="m697.219507.18549748-.541538.81429245h49.224247l-.546278-.81429245z"/><path d="m697.218677.18549748-8.288965 12.46329712h-35.77349l8.31385-12.46329712h-2.055948l-9.456174 14.17366682h39.88894l9.42655-14.17366682z"/><path d="m559.554077 172.247863 17.883783 26.667781 58.307151-87.685192h-35.543603zm17.889708 29.748343-19.948025-29.744788 41.79084-62.731336h39.649574z"/><path d="m499.264447 138.650298 21.51339 32.078619 21.314312-32.078619zm21.5205 35.160366-24.727067-36.870735h49.224247z"/><path d="m521.800715 172.247863 17.886153 26.668966 49.118783-73.626498h-35.774675zm17.889708 29.745972-19.945655-29.742417 32.36903-48.671456h39.888941z"/><path d="m499.256863 128.034153h35.542419l40.648515-61.0174103-17.883782-26.6665961zm36.458412 1.71037h-39.650759l61.492389-92.4749384 19.948025 29.7447875z"/><path d="m592.909252 100.615018h42.827701l-21.514574-32.0786183zm46.034269 1.71037h-49.224247l24.49718-36.8707356z"/><path d="m546.196224 113.974511h35.774675l31.229075-46.9575313-17.886152-26.6689666zm36.691853 1.71037h-39.888941l52.311131-78.413874 19.945655 29.7424169z"/><path d="m881.179784 471.792985 17.883782 26.667781 58.307151-87.684006h-35.543603zm17.889707 29.748343-19.948025-29.744787 41.79084-62.731336h39.649574z"/><path d="m820.890154 438.195421 21.514574 32.078618 21.313127-32.078618zm21.520499 35.160366-24.727067-36.870736h49.224247z"/><path d="m843.42737 471.792985 17.886152 26.668967 49.117598-73.626498h-35.774675zm17.889707 29.745973-19.945655-29.742417 32.367845-48.671457h39.888941z"/><path d="m820.882688 427.579276h35.543604l40.64733-61.016226-17.883783-26.667781zm36.458411 1.710369h-39.650758l61.492389-92.474938 19.948025 29.744788z"/><path d="m914.534958 400.160141h42.827701l-21.513389-32.078619zm46.035454 1.710369h-49.225432l24.498365-36.870735z"/><path d="m867.82193 413.519633h35.774675l31.230261-46.957531-17.886153-26.668966zm36.691853 1.71037h-39.888941l52.312316-78.413874 19.945655 29.742417z"/><path d="m881.179784 622.746093 17.883782 26.66541 58.307151-87.681636h-35.543603zm17.889707 29.745972-19.948025-29.742417 41.79084-62.731336h39.649574z"/><path d="m820.890154 589.14841 21.514574 32.078618 21.313127-32.078618zm21.520499 35.160366-24.727067-36.870736h49.224247z"/><path d="m843.42737 622.746093 17.886152 26.667781 49.117598-73.625313h-35.774675zm17.889707 29.744787-19.945655-29.741232 32.367845-48.671456h39.888941z"/><path d="m820.882688 578.532265h35.543604l40.64733-61.016226-17.883783-26.667781zm36.458411 1.710369h-39.650758l61.492389-92.474938 19.948025 29.744788z"/><path d="m914.534958 551.11313h42.827701l-21.513389-32.078619zm46.035454 1.710369h-49.225432l24.498365-36.870735z"/><path d="m867.82193 564.472622h35.774675l31.230261-46.957531-17.886153-26.668966zm36.691853 1.71037h-39.888941l52.312316-78.413874 19.945655 29.742417z"/><path d="m988.430459 370.465491 17.883781 26.667781 58.30834-87.684006h-35.54479zm17.889711 29.748343-19.948029-29.744787 41.790839-62.731336h39.64958z"/><path d="m928.140829 336.867927 21.514574 32.080989 21.313127-32.080989zm21.520499 35.16155-24.727067-36.87192h49.224247z"/><path d="m950.677926 370.465491 17.886153 26.668966 49.117601-73.626497h-35.774678zm17.889708 29.745973-19.945656-29.742417 32.367846-48.671457h39.888936z"/><path d="m928.133245 326.253441h35.543603l40.647332-61.017411-17.883784-26.666596zm36.458411 1.710369h-39.650759l61.492389-92.474938 19.948024 29.744788z"/><path d="m1021.78646 298.834187h42.8277l-21.51457-32.080989zm46.03427 1.71037h-49.22425l24.49718-36.871921z"/><path d="m975.072605 312.19368h35.774675l31.23026-46.957531-17.88615-26.668967zm36.691855 1.71037h-39.888943l52.312313-78.413874 19.94566 29.742417z"/><path d="m988.430459 521.41848 17.883781 26.667781 58.30834-87.684006h-35.54479zm17.889711 29.748343-19.948029-29.744787 41.790839-62.731336h39.64958z"/><path d="m928.140829 487.820797 21.514574 32.078618 21.313127-32.078618zm21.520499 35.160366-24.727067-36.870736h49.224247z"/><path d="m950.677926 521.41848 17.886153 26.668966 49.117601-73.626497h-35.774678zm17.889708 29.745973-19.945656-29.742417 32.367846-48.671457h39.888936z"/><path d="m928.133245 477.204652h35.543603l40.647332-61.01504-17.883784-26.667781zm36.458411 1.71037h-39.650759l61.492389-92.473753 19.948024 29.744787z"/><path d="m1021.78646 449.785517h42.8277l-21.51457-32.078619zm46.03427 1.710369h-49.22425l24.49718-36.870735z"/><path d="m975.072605 463.146788h35.774675l31.23026-46.957532-17.88615-26.668966zm36.691855 1.710369h-39.888943l52.312313-78.413873 19.94566 29.742416z"/><path d="m988.430459 672.371469 17.883781 26.667781 58.30834-87.684006h-35.54479zm17.889711 29.748343-19.948029-29.744787 41.790839-62.731336h39.64958z"/><path d="m928.140829 638.773786 21.514574 32.078618 21.313127-32.078618zm21.520499 35.160366-24.727067-36.870736h49.224247z"/><path d="m950.677926 672.371469 17.886153 26.668966 49.117601-73.626498h-35.774678zm17.889708 29.745973-19.945656-29.742417 32.367846-48.671457h39.888936z"/><path d="m928.133245 628.157641h35.543603l40.647332-61.016225-17.883784-26.667782zm36.458411 1.71037h-39.650759l61.492389-92.474939 19.948024 29.744788z"/><path d="m1021.78646 600.738624h42.8277l-21.51457-32.078618zm46.03427 1.71037h-49.22425l24.49718-36.870735z"/><path d="m975.072605 614.098117h35.774675l31.23026-46.957531-17.88615-26.668967zm36.691855 1.71037h-39.888943l52.312313-78.413874 19.94566 29.742417z"/><path d="m1035.3838 375.878817h35.54242l40.64852-61.016225-17.8826-26.667782zm36.45841 1.71037h-39.65076l61.49358-92.474939 19.94684 29.744788z"/><path d="m1129.03619 348.459682h42.8277l-21.51457-32.078619zm46.03545 1.71037h-49.22543l24.49718-36.870736z"/><path d="m1082.32316 361.819175h35.77586l31.22671-46.957532-17.88379-26.668966zm36.69067 1.710369h-39.88776l52.31232-78.413873 19.94566 29.742417z"/><path d="m1095.68102 419.723309 17.88496 26.667782 58.30597-87.684007h-35.5436zm17.89089 29.748344-19.94921-29.744788 41.79084-62.731336h39.64957z"/><path d="m1035.39139 386.125627 21.51457 32.078618 21.31313-32.078618zm21.52049 35.160365-24.72706-36.870735h49.22424z"/><path d="m1057.92943 419.723309 17.88497 26.668967 49.1176-73.626498h-35.77586zm17.88734 29.745973-19.94566-29.742417 32.37022-48.671457h39.88775z"/><path d="m1095.68102 570.67618 17.88496 26.667781 58.30597-87.684006h-35.5436zm17.89089 29.748343-19.94921-29.744787 41.79084-62.731336h39.64957z"/><path d="m1035.39139 537.078615 21.51457 32.078619 21.31313-32.078619zm21.52049 35.160366-24.72706-36.870735h49.22424z"/><path d="m1057.92943 570.67618 17.88497 26.668966 49.1176-73.626498h-35.77586zm17.88734 29.745972-19.94566-29.742416 32.37022-48.671457h39.88775z"/><path d="m1035.3838 526.46247h35.54242l40.64852-61.016225-17.8826-26.667781zm36.45841 1.71037h-39.65076l61.49358-92.474938 19.94684 29.744787z"/><path d="m1129.03619 499.043335h42.8277l-21.51457-32.078618zm46.03545 1.71037h-49.22543l24.49718-36.870735z"/><path d="m1082.32316 512.402947h35.77586l31.22671-46.957532-17.88379-26.668966zm36.69067 1.710369h-39.88776l52.31232-78.413873 19.94566 29.742417z"/><path d="m1035.3838 677.415459h35.54242l40.64852-61.016225-17.8826-26.667781zm36.45841 1.71037h-39.65076l61.49358-92.474938 19.94684 29.744787z"/><path d="m1129.03619 649.996324h42.8277l-21.51457-32.078618zm46.03545 1.71037h-49.22543l24.49718-36.870735z"/><path d="m1082.32316 663.355936h35.77586l31.22671-46.957532-17.88379-26.668966zm36.69067 1.710369h-39.88776l52.31232-78.413873 19.94566 29.742417z"/><path d="m1202.9324 469.348685 17.8826 26.667782 58.30834-87.684007h-35.54479zm17.88971 29.748344-19.94803-29.744788 41.78966-62.731336h39.65076z"/><path d="m1142.64289 435.751003 21.5122 32.080989 21.3155-32.080989zm21.51931 35.161551-24.72588-36.871921h49.22425z"/><path d="m1165.17928 469.348685 17.88615 26.668967 49.11878-73.626498h-35.77586zm17.8897 29.745973-19.94802-29.742417 32.3714-48.671457h39.88775z"/><path d="m1142.63448 425.136635h35.5436l40.64733-61.016225-17.88378-26.667781zm36.45841 1.71037h-39.64839l61.49002-92.474938 19.94921 29.744787z"/><path d="m1236.28769 397.7175h42.82771l-21.51458-32.080989zm46.03427 1.71037h-49.22424l24.49718-36.871921z"/><path d="m1189.57467 411.076993h35.77586l31.2267-46.957531-17.88615-26.668967zm36.69066 1.71037h-39.88775l52.30994-78.413874 19.94803 29.742417z"/><path d="m1249.59365 474.897371h35.5436l40.64733-61.016225-17.88378-26.667781zm36.45841 1.71037h-39.64839l61.49002-92.474938 19.94921 29.744787z"/><path d="m1343.24674 447.478236h42.82771l-21.51458-32.078618zm46.03546 1.71037h-49.22543l24.49718-36.870735z"/><path d="m1296.53384 460.837729h35.77586l31.2267-46.957531-17.88615-26.668967zm36.69066 1.71037h-39.88775l52.30994-78.413874 19.94803 29.742417z"/><path d="m1202.9324 620.301674 17.8826 26.667782 58.30834-87.684007h-35.54479zm17.88971 29.748344-19.94803-29.744788 41.78966-62.731336h39.65076z"/><path d="m1142.64289 586.703992 21.5122 32.078618 21.3155-32.078618zm21.51931 35.160365-24.72588-36.870735h49.22425z"/><path d="m1165.17928 620.301674 17.88615 26.668967 49.11878-73.626498h-35.77586zm17.8897 29.745973-19.94802-29.742417 32.3714-48.671457h39.88775z"/><path d="m1142.63448 576.087965h35.5436l40.64733-61.016225-17.88378-26.666596zm36.45841 1.71037h-39.64839l61.49002-92.473753 19.94921 29.743602z"/><path d="m1236.28769 548.668711h42.82771l-21.51458-32.078618zm46.03427 1.71037h-49.22424l24.49718-36.870735z"/><path d="m1189.57467 562.029982h35.77586l31.2267-46.958716-17.88615-26.667782zm36.69066 1.71037h-39.88775l52.30994-78.413874 19.94803 29.741232z"/><path d="m1309.89157 519.141187 17.8826 26.667781 58.30833-87.684006h-35.5436zm17.88971 29.748343-19.94803-29.744787 41.79084-62.731336h39.64958z"/><path d="m1249.60194 485.543504 21.51221 32.080989 21.31549-32.080989zm21.51932 35.161551-24.72589-36.87192h49.22425z"/><path d="m1272.13833 519.141187 17.88615 26.668967 49.11878-73.626498h-35.77586zm17.8897 29.745973-19.94802-29.742417 32.3714-48.671457h39.88776z"/><path d="m1309.89157 670.094176 17.8826 26.667781 58.30833-87.684006h-35.5436zm17.88971 29.748343-19.94803-29.744787 41.79084-62.731336h39.64958z"/><path d="m1249.60194 636.496493 21.51221 32.078619 21.31549-32.078619zm21.51932 35.160366-24.72589-36.870735h49.22425z"/><path d="m1272.13833 670.094176 17.88615 26.668967 49.11878-73.626498h-35.77586zm17.8897 29.745973-19.94802-29.742417 32.3714-48.671457h39.88776z"/><path d="m1249.59365 625.880348h35.5436l40.64733-61.01504-17.88378-26.667781zm36.45841 1.71037h-39.64839l61.49002-92.473753 19.94921 29.744787z"/><path d="m1343.24674 598.461213h42.82771l-21.51458-32.078618zm46.03546 1.71037h-49.22543l24.49718-36.870736z"/><path d="m1296.53384 611.822484h35.77586l31.2267-46.957531-17.88615-26.668967zm36.69066 1.71037h-39.88775l52.30994-78.413874 19.94803 29.742417z"/><path d="m1415.08322 417.818197 19.94921 29.745973 4.96745-7.469682v-3.092415l-4.97456 7.480349-17.88379-26.667781 22.85835-34.3117v-3.086488z"/><path d="m1356.85179 384.217551 21.51457 32.078618 21.31313-32.078618zm21.5205 35.160366-24.72707-36.870736h49.22425z"/><path d="m1409.70173 369.147333-32.37022 48.671456 19.94566 29.742417 42.72224-64.038708v-3.081747l-42.7258 64.043449-17.88378-26.668966 31.22671-46.956346h29.38287v-1.711555z"/><path d="m1356.84337 373.601524h35.54361l40.64733-61.01741-17.8826-26.666596zm36.45841 1.71037h-39.64838l61.49238-92.474938 19.94684 29.744787z"/><path d="m1400.58648 361.253318h39.41257v-2.372945l-.43963.66139h-35.77586l36.21549-54.286163v-3.081747z"/><path d="m1415.08322 568.772015 19.94921 29.744788 4.96745-7.469681v-3.09123l-4.97456 7.480349-17.88379-26.668967 22.85835-34.3117v-3.085303z"/><path d="m1356.85179 535.17054 21.51457 32.078618 21.31313-32.078618zm21.5205 35.160365-24.72707-36.870735h49.22425z"/><path d="m1409.70173 520.100085-32.37022 48.671456 19.94566 29.742417 42.72224-64.038708v-3.081747l-42.7258 64.043449-17.88378-26.668966 31.22671-46.956346h29.38287v-1.711555z"/><path d="m1356.84337 524.554513h35.54361l40.64733-61.016225-17.8826-26.667781zm36.45841 1.71037h-39.64838l61.49238-92.474938 19.94684 29.744787z"/><path d="m1400.58648 512.20607h39.41257v-2.372945l-.43963.66139h-35.77586l36.21549-54.286163v-3.081747z"/><path d="m1415.08322 719.722634 19.94921 29.745973 4.96745-7.469682v-3.091229l-4.97456 7.479163-17.88379-26.667781 22.85835-34.310515v-3.086488z"/><path d="m1356.85179 686.123529 21.51457 32.078618 21.31313-32.078618zm21.5205 35.160365-24.72707-36.870735h49.22425z"/><path d="m1409.70173 671.05177-32.37022 48.671457 19.94566 29.742416 42.72224-64.038708v-3.081747l-42.7258 64.043449-17.88378-26.668966 31.22671-46.956346h29.38287v-1.711555z"/><path d="m1356.84337 675.507502h35.54361l40.64733-61.016225-17.8826-26.667781zm36.45841 1.71037h-39.64838l61.49238-92.474938 19.94684 29.744787z"/><path d="m1400.58648 663.158822h39.41257v-2.372945l-.43963.66139h-35.77586l36.21549-54.284978v-3.081747z"/><path d="m1310.03685 368.022732 17.88497 26.667781 58.30596-87.684006h-35.5436zm17.89089 29.748343-19.94921-29.744787 41.79084-62.731336h39.64958z"/><path d="m1249.74734 334.425049 21.51457 32.078619 21.31313-32.078619zm21.5205 35.160366-24.72707-36.870736h49.22425z"/><path d="m1272.28538 368.022732 17.88497 26.668967 49.1176-73.626498h-35.77586zm17.88734 29.745973-19.94565-29.742417 32.37021-48.671457h39.88776z"/><path d="m666.678552 70.8366869 17.883782 26.6677814 58.307152-87.68400654h-35.543604zm17.889707 29.7483431-19.948025-29.7447872 41.79084-62.73133606h39.649574z"/><path d="m606.388922 37.2391227 21.514574 32.080989 21.313127-32.080989zm21.520499 35.161551-24.727067-36.8719207h49.224247z"/><path d="m628.926138 70.8366869 17.886152 26.6689667 49.117598-73.6264979h-35.774675zm17.889707 29.7471581-19.945655-29.7436022 32.367845-48.6714568h39.888941z"/><path d="m666.678552 221.789794 17.883782 26.667782 58.307152-87.685192h-35.543604zm17.889707 29.748344-19.948025-29.744788 41.79084-62.731336h39.649574z"/><path d="m606.388922 188.192112 21.514574 32.080989 21.313127-32.080989zm21.520499 35.161551-24.727067-36.871921h49.224247z"/><path d="m628.926138 221.789794 17.886152 26.668967 49.117598-73.626498h-35.774675zm17.889707 29.745973-19.945655-29.742417 32.367845-48.671457h39.888941z"/><path d="m606.381338 177.577626h35.543603l40.647331-61.017411-17.883783-26.6665956zm36.458411 1.71037h-39.650759l61.492389-92.4749386 19.948025 29.7447876z"/><path d="m700.033726 150.158491h42.827702l-21.51339-32.080989zm46.035454 1.71037h-49.225432l24.498365-36.871921z"/><path d="m653.320698 163.517984h35.774675l31.230261-46.957531-17.886153-26.6689672zm36.691853 1.710369h-39.888941l52.312316-78.4138733 19.945655 29.7424173z"/><path d="m773.929108 120.463841 17.883783 26.667781 58.307151-87.6840062h-35.543603zm17.889708 29.748343-19.948025-29.744787 41.79084-62.7313362h39.649574z"/><path d="m713.639597 86.8661583 21.514574 32.0786187 21.313128-32.0786187zm21.520499 35.1603657-24.727067-36.8707355h49.224247z"/><path d="m736.176694 120.463841 17.886153 26.668967 49.117598-73.6264982h-35.774675zm17.889708 29.745973-19.945655-29.742417 32.367845-48.671457h39.888941z"/><path d="m779.731147.18549748 10.091326 15.04722362-40.646146 61.0174105h-35.544788l50.581054-76.06463412h-2.054763l-51.717454 77.77500382h39.650759l41.788471-62.7301508-10.088957-15.04485302z"/><path d="m807.284283 48.8309965h42.827701l-21.513389-32.0786184zm46.034269 1.7103697h-49.224247l24.498365-36.8707354z"/><path d="m817.483324.18549748 10.092511 15.04722362-31.229076 46.9587165h-35.77586l41.365431-62.00594012h-2.055948l-42.50657 63.71630992h39.88894l32.369031-48.6714569-10.088957-15.04485302z"/><path d="m773.929108 271.41683 17.883783 26.667781 58.307151-87.684006h-35.543603zm17.889708 29.748343-19.948025-29.744787 41.79084-62.731336h39.649574z"/><path d="m713.639597 237.819147 21.514574 32.078619 21.313128-32.078619zm21.520499 35.160366-24.727067-36.870735h49.224247z"/><path d="m736.176694 271.41683 17.886153 26.668967 49.117598-73.626498h-35.774675zm17.889708 29.745973-19.945655-29.742417 32.367845-48.671457h39.888941z"/><path d="m713.632013 227.203002h35.543603l40.647331-61.016225-17.883783-26.667782zm36.458411 1.71037h-39.650759l61.492389-92.474938 19.948026 29.744787z"/><path d="m807.284283 199.783985h42.827701l-21.513389-32.078618zm46.034269 1.71037h-49.224247l24.498365-36.870735z"/><path d="m760.571373 213.143478h35.774675l31.230261-46.957531-17.886153-26.668967zm36.691853 1.71037h-39.88894l52.312315-78.413874 19.945656 29.742417z"/><path d="m929.15245.18549748-30.089121 45.24834682-17.882598-26.6665961 12.378346-18.58175072h-2.055947l-12.380716 18.58530652 19.948025 29.7436022 32.136774-48.32890872z"/><path d="m853.74171.18549748-11.33793 17.06458282-11.444578-17.06458282h-2.059503l13.511191 20.14514482 13.385582-20.14514482z"/><path d="m891.500878.18549748-30.187474 45.25071732-17.886153-26.6689666 12.358201-18.58175072h-2.054763l-12.359386 18.58530652 19.945656 29.7436022 32.239867-48.32890872z"/><path d="m881.179784 169.719882 17.883782 26.667781 58.307151-87.684007h-35.543603zm17.889707 29.748343-19.948025-29.744788 41.79084-62.731336h39.649574z"/><path d="m820.890154 136.122436 21.514574 32.080989 21.313127-32.080989zm21.520499 35.161551-24.727067-36.871921h49.224247z"/><path d="m843.42737 169.719882 17.886152 26.668966 49.117598-73.626498h-35.774675zm17.889707 29.747158-19.945655-29.743603 32.367845-48.671456h39.888941z"/><path d="m820.882688 125.50795h35.543604l40.64733-61.0174104-17.883783-26.6665961zm36.458411 1.71037h-39.650758l61.492389-92.4749384 19.948025 29.7447875z"/><path d="m914.534958 98.0886965h42.827701l-21.513389-32.080989zm46.035454 1.7103697h-49.225432l24.498365-36.8719207z"/><path d="m867.82193 111.448308h35.774675l31.230261-46.9575313-17.886153-26.6689667zm36.691853 1.71037h-39.888941l52.312316-78.4138741 19.945655 29.7424169z"/><path d="m881.179784 320.672871 17.883782 26.667781 58.307151-87.684007h-35.543603zm17.889707 29.748343-19.948025-29.744788 41.79084-62.731336h39.649574z"/><path d="m820.890154 287.075425 21.514574 32.080989 21.313127-32.080989zm21.520499 35.161551-24.727067-36.871921h49.224247z"/><path d="m843.42737 320.672871 17.886152 26.668966 49.117598-73.626498h-35.774675zm17.889707 29.745972-19.945655-29.742417 32.367845-48.671456h39.888941z"/><path d="m820.882688 276.460939h35.543604l40.64733-61.01741-17.883783-26.666596zm36.458411 1.71037h-39.650758l61.492389-92.474938 19.948025 29.744787z"/><path d="m914.534958 249.041685h42.827701l-21.513389-32.080989zm46.035454 1.71037h-49.225432l24.498365-36.87192z"/><path d="m867.82193 262.401297h35.774675l31.230261-46.957531-17.886153-26.668967zm36.691853 1.71037h-39.888941l52.312316-78.413874 19.945655 29.742417z"/><path d="m988.430459 68.3940466 17.883781 26.6677814 58.30834-87.68400653h-35.54479zm17.889711 29.7483434-19.948029-29.7447875 41.790839-62.73133605h39.64958z"/><path d="m928.140829 34.7963639 21.514574 32.0786184 21.313127-32.0786184zm21.520499 35.1603657-24.727067-36.8707354h49.224247z"/><path d="m950.677926 68.3940466 17.886153 26.6689667 49.117601-73.6264979h-35.774678zm17.889708 29.7459728-19.945656-29.7424169 32.367846-48.6714568h39.888936z"/><path d="m979.661338.18549748-15.984253 23.99495832h-35.543603l15.955813-23.99495832h-2.054763l-17.093398 25.70532802h39.650759l17.124208-25.70532802z"/><path d="m1017.45546.18549748-6.60747 9.93626432h-35.775859l6.628802-9.93626432h-2.057133l-7.768757 11.64544882h39.888937l7.74506-11.64544882z"/><path d="m1102.73926.18549748 8.54492 12.74065432-40.64852 61.0174105h-35.5436l49.0465-73.75806482h-2.05477l-50.18408 75.46724922h39.65076l41.79084-62.7301507-8.54255-12.73709852z"/><path d="m1128.74563 46.523716h42.8277l-21.51457-32.0809889zm46.03427 1.7103698h-49.22425l24.49718-36.8719207z"/><path d="m1140.49096.18549748 8.54492 12.74065432-31.22789 46.9575313h-35.77586l39.82495-59.69818562h-2.05595l-40.96609 61.40855532h39.88894l32.36903-48.6714568-8.54255-12.73709852z"/><path d="m988.430459 219.347036 17.883781 26.667781 58.30834-87.684007h-35.54479zm17.889711 29.748343-19.948029-29.744788 41.790839-62.731336h39.64958z"/><path d="m928.140829 185.749353 21.514574 32.078618 21.313127-32.078618zm21.520499 35.160366-24.727067-36.870736h49.224247z"/><path d="m950.677926 219.347036 17.886153 26.668966 49.117601-73.626498h-35.774678zm17.889708 29.745972-19.945656-29.742417 32.367846-48.671456h39.888936z"/><path d="m928.133245 175.133326h35.543603l40.647332-61.016225-17.883784-26.6677813zm36.458411 1.71037h-39.650759l61.492389-92.4749383 19.948024 29.7447873z"/><path d="m1021.78646 147.714073h42.8277l-21.51457-32.078619zm46.03427 1.710369h-49.22425l24.49718-36.86955z"/><path d="m975.072605 161.073803h35.774675l31.23026-46.957532-17.88615-26.6689663zm36.691855 1.710369h-39.888943l52.312313-78.4138734 19.94566 29.7424164z"/><path d="m1095.39034 118.186548 17.8826 26.667782 58.30833-87.6840069h-35.54479zm17.88971 29.748344-19.94803-29.744788 41.78966-62.7313359h39.65076z"/><path d="m1035.09988 84.5888656 21.51339 32.0786184 21.3155-32.0786184zm21.5205 35.1603654-24.72707-36.8707352h49.22543z"/><path d="m1057.6371 118.186548 17.88615 26.668967 49.11878-73.6264979h-35.77586zm17.8897 29.745973-19.94802-29.742417 32.3714-48.6714567h39.88775z"/><path d="m1095.39034 269.139537 17.8826 26.667782 58.30833-87.684007h-35.54479zm17.88971 29.748344-19.94803-29.744788 41.78966-62.731336h39.65076z"/><path d="m1035.09988 235.541855 21.51339 32.078618 21.3155-32.078618zm21.5205 35.160365-24.72707-36.870735h49.22543z"/><path d="m1057.6371 269.139537 17.88615 26.668967 49.11878-73.626498h-35.77586zm17.8897 29.745973-19.94802-29.742417 32.3714-48.671457h39.88775z"/><path d="m1035.0923 224.925828h35.5436l40.64733-61.016225-17.88378-26.667782zm36.45841 1.71037h-39.65076l61.49239-92.474939 19.94921 29.744788z"/><path d="m1128.74563 197.506574h42.8277l-21.51457-32.078618zm46.03427 1.71037h-49.22425l24.49718-36.86955z"/><path d="m1082.0326 210.866304h35.77586l31.22671-46.957531-17.88615-26.668967zm36.69067 1.71037h-39.88775l52.30994-78.413874 19.94803 29.742417z"/><path d="m1249.34468.18549748-28.82 43.34121932-17.88378-26.6677814 11.10685-16.67343792h-2.05594l-11.11042 16.67699382 19.9504 29.7447875 30.86765-46.42178132z"/><path d="m1173.93465.18549748-10.06999 15.15627012-10.16362-15.15627012h-2.0595l12.23022 18.23683202 12.11647-18.23683202z"/><path d="m1211.68789.18549748-28.9148 43.34240462-17.88378-26.6689667 11.0879-16.67343792h-2.05476l-11.09146 16.67699382 19.94447 29.7424169 30.96838-46.41941072z"/><path d="m1202.64018 167.811924 17.88497 26.667782 58.30597-87.684007h-35.5436zm17.8909 29.748344-19.94921-29.744788 41.79084-62.731336h39.64957z"/><path d="m1142.35044 134.214242 21.51457 32.080989 21.31313-32.080989zm21.5205 35.161551-24.72707-36.871921h49.22425z"/><path d="m1164.8886 167.811924 17.88497 26.668967 49.1176-73.626498h-35.77586zm17.88734 29.745973-19.94566-29.742417 32.37022-48.671457h39.88775z"/><path d="m1142.34226 123.599874h35.5436l40.64733-61.01741-17.88259-26.6665961zm36.45841 1.71037h-39.64839l61.49121-92.4749381 19.94802 29.7447875z"/><path d="m1235.99536 96.1807393h42.8277l-21.51457-32.0809889zm46.03427 1.7103698h-49.22425l24.49718-36.8719207z"/><path d="m1189.28233 109.540232h35.77586l31.22671-46.957531-17.88379-26.6689667zm36.69067 1.71037h-39.88776l52.31232-78.4138738 19.94565 29.742417z"/><path d="m1202.64018 318.764913 17.88497 26.667782 58.30597-87.684007h-35.5436zm17.8909 29.748344-19.94921-29.744788 41.79084-62.731336h39.64957z"/><path d="m1142.35044 285.167231 21.51457 32.078618 21.31313-32.078618zm21.5205 35.160365-24.72707-36.870735h49.22425z"/><path d="m1164.8886 318.764913 17.88497 26.668967 49.1176-73.626498h-35.77586zm17.88734 29.745973-19.94566-29.742417 32.37022-48.671457h39.88775z"/><path d="m1142.34226 274.552863h35.5436l40.64733-61.01741-17.88259-26.666596zm36.45841 1.71037h-39.64839l61.49121-92.474938 19.94802 29.744787z"/><path d="m1235.99536 247.132187h42.8277l-21.51457-32.078618zm46.03427 1.71037h-49.22425l24.49718-36.870735z"/><path d="m1189.28233 260.493221h35.77586l31.22671-46.957531-17.88379-26.668967zm36.69067 1.71037h-39.88776l52.31232-78.413874 19.94565 29.742417z"/><path d="m1299.85108.18549748-14.71395 22.08664552h-35.5436l14.68669-22.08664552h-2.05239l-15.82428 23.79701532h39.64839l15.8539-23.79701532z"/><path d="m1337.64722.18549748-5.33835 8.02676632h-35.77468l5.35494-8.02676632h-2.05594l-6.49727 9.73832134h39.88894l6.47712-9.73832134z"/><path d="m1309.89157 66.116754 17.8826 26.6677813 58.30833-87.68400653h-35.5436zm17.88971 29.7483433-19.94803-29.7447875 41.79084-62.73133604h39.64958z"/><path d="m1249.60194 32.5191897 21.51221 32.0786184 21.31549-32.0786184zm21.51932 35.1603657-24.72589-36.8707354h49.22425z"/><path d="m1272.13833 66.116754 17.88615 26.6689666 49.11878-73.6264979h-35.77586zm17.8897 29.7459727-19.94802-29.7424169 32.3714-48.6714568h39.88776z"/><path d="m1309.89157 217.069743 17.8826 26.667781 58.30833-87.684006h-35.5436zm17.88971 29.748343-19.94803-29.744787 41.79084-62.731336h39.64958z"/><path d="m1249.60194 183.472179 21.51221 32.078618 21.31549-32.078618zm21.51932 35.160365-24.72589-36.870735h49.22425z"/><path d="m1272.13833 217.069743 17.88615 26.668967 49.11878-73.626498h-35.77586zm17.8897 29.745973-19.94802-29.742417 32.3714-48.671457h39.88776z"/><path d="m1249.59365 172.856034h35.5436l40.64733-61.017411-17.88378-26.666596zm36.45841 1.710369h-39.64839l61.49002-92.474938 19.94921 29.744787z"/><path d="m1343.24674 145.436898h42.82771l-21.51458-32.078618zm46.03546 1.71037h-49.22543l24.49718-36.86955z"/><path d="m1296.53384 158.796391h35.77586l31.2267-46.957531-17.88615-26.6689666zm36.69066 1.71037h-39.88775l52.30994-78.4138737 19.94803 29.7424167z"/><path d="m1249.59365 323.809023h35.5436l40.64733-61.016226-17.88378-26.667781zm36.45841 1.710369h-39.64839l61.49002-92.474938 19.94921 29.744787z"/><path d="m1343.24674 296.389887h42.82771l-21.51458-32.078618zm46.03546 1.71037h-49.22543l24.49718-36.86955z"/><path d="m1296.53384 309.749499h35.77586l31.2267-46.957531-17.88615-26.668967zm36.69066 1.71037h-39.88775l52.30994-78.413874 19.94803 29.742417z"/><path d="m1415.08322 115.745212 19.94921 29.745973 4.96745-7.469682v-3.091229l-4.97456 7.479163-17.88379-26.667781 22.85835-34.3116999v-3.0864884z"/><path d="m1356.85179 82.1445659 21.51457 32.0809891 21.31313-32.0809891zm21.5205 35.1615511-24.72707-36.8719209h49.22425z"/><path d="m1409.70173 67.0743476-32.37022 48.6714564 19.94566 29.742417 42.72224-64.0387077v-3.0817472l-42.7258 64.0434489-17.88378-26.668966 31.22671-46.9563463h29.38287v-1.7115551z"/><path d="m1426.10843.18549748 6.92623 10.32859452-40.64851 61.0162251h-35.54242l47.44203-71.34481962h-2.05476l-48.57843 73.05518942h39.64957l41.79084-62.7301508-6.92386-10.32503862z"/><path d="m1439.94431.18549748-39.35807 58.99649542h39.41376v-2.3741307l-.44081.6625757h-35.77586l36.21667-54.28616328v-2.99877714z"/><path d="m1415.08322 266.699031 19.94921 29.744787 4.96745-7.469681v-3.09123l-4.97456 7.479164-17.88379-26.667782 22.85835-34.3117v-3.085303z"/><path d="m1356.85179 233.097555 21.51457 32.080989 21.31313-32.080989zm21.5205 35.161551-24.72707-36.871921h49.22425z"/><path d="m1409.70173 218.027218-32.37022 48.671457 19.94566 29.742417 42.72224-64.038708v-3.081747l-42.7258 64.043449-17.88378-26.668967 31.22671-46.956346h29.38287v-1.711555z"/><path d="m1356.84337 222.483188h35.54361l40.64733-61.017411-17.8826-26.666596zm36.45841 1.710369h-39.64838l61.49238-92.474938 19.94684 29.744788z"/><path d="m1400.58648 210.134152h39.41257v-2.372945l-.43963.66139h-35.77586l36.21549-54.284978v-3.081747z"/><path d="m7.13490881 1018.62841h2.05476274l12.41271025-18.665904 12.5181739 18.665904h2.0595027l-14.5847865-21.746466z"/><path d="m44.8415824 1018.62841h2.0571327l12.4541847-18.668274 12.5193589 18.668274h2.0595027l-14.5836015-21.74528z"/><path d="m170.575287 967.804829-33.857371 50.823941h2.055948l32.716231-49.112386h35.542418l-32.658167 49.112386h2.055948l33.794567-50.823941z"/><path d="m67.3458558 995.223727 15.6963017 23.404683h2.0606876l-14.5492369-21.693128h42.8277018l-14.4141489 21.693128h2.0535779l15.550549-23.404683z"/><path d="m123.402485 981.864708-24.4497807 36.764062h2.0535777l23.313381-35.053692h35.774675l-23.385665 35.053692h2.055948l24.526804-36.764062z"/><path d="m70.5459058 986.318663h35.5424182l40.648516-61.016225-17.883783-26.667782zm36.4584112 1.71037h-39.6507588l61.4923888-92.474939 19.948025 29.744788z"/><path d="m164.198175 958.899528h42.827702l-21.514574-32.078619zm46.03427 1.71037h-49.224247l24.49718-36.870736z"/><path d="m117.485266 972.259139h35.774675l31.229076-46.957531-17.886153-26.668967zm36.691853 1.71037h-39.888941l52.311131-78.413874 19.945655 29.742417z"/><path d="m187.257258 1018.62841h2.054763l46.791474-70.366955 17.883783 26.667781-29.111509 43.699174h2.054763l29.113879-43.70273-19.946841-29.744787z"/><path d="m271.448851 1008.52668h42.827701l-21.514574-32.080987zm46.034269 1.71037h-49.224247l24.49718-36.871919z"/><path d="m224.853255 1018.62841h2.055947l46.944337-70.36814 17.886153 26.668966-29.061739 43.699174h2.053577l29.06411-43.70273-19.945656-29.743602z"/><path d="m277.82537 1017.06134-1.043972 1.56695h39.653129l1.041601-1.56695z"/><path d="m327.26078 1018.62841h2.055948l14.037324-21.109966 14.157007 21.109966h2.060688l-16.224805-24.191714z"/><path d="m364.963307 1018.62841h2.055947l14.084723-21.112337 14.159378 21.112337h2.058317l-16.22125-24.189343z"/><path d="m599.2866 1015.15291-2.315459 3.47527h2.054762l1.175505-1.76371h35.542418l-1.173134 1.76371h2.054762l2.31072-3.47527z"/><path d="m507.203486 1018.62841h2.054763l48.304699-72.643892 17.884968 26.667781-30.629474 45.976111h2.055948l30.631844-45.980852-19.949211-29.743602z"/><path d="m592.909252 1006.24939h42.827701l-21.514574-32.08099zm46.034269 1.71037h-49.224247l24.49718-36.871922z"/><path d="m544.795098 1018.62841h2.054763l48.464672-72.645078 17.884967 26.668967-30.576149 45.976111h2.054763l30.578519-45.980852-19.945655-29.742417z"/><path d="m647.452537 1018.62841h2.055948l15.306442-23.018279 15.435605 23.018279h2.060688l-17.503403-26.098841z"/><path d="m685.15056 1018.62841h2.055948l15.357396-23.02065 15.439161 23.02065h2.058317l-17.501033-26.097656z"/><path d="m492.181559 965.360885-35.485539 53.268005h2.055948l34.344399-51.557635h35.542419l-34.282781 51.557635h2.054763l35.420365-53.268005z"/><path d="m388.952128 992.779783 17.335135 25.848747h2.059503l-16.18807-24.137192h42.828886l-16.037577 24.137192h2.053578l17.172792-25.848747z"/><path d="m445.007691 979.419698-26.074394 39.208122h2.053578l24.937994-37.496567h35.77586l-25.016203 37.496567h2.055948l26.156158-39.208122z"/><path d="m.00047399 576.700759v3.090044l21.60226331-32.485172 17.8837827 26.666596-39.48604601 59.271482v3.085303l41.54317871-62.360341-19.9480253-29.743602z"/><path d="m56.9476188 607.570384h42.8277016l-21.5145745-32.078619zm46.0342692 1.71037h-49.2242469l24.4971799-36.870736z"/><path d="m10.2345907 620.929877h35.7746752l31.2290756-46.957532-17.8861527-26.668966zm36.691853 1.710369h-39.88894059l52.31113079-78.413873 19.9456553 29.742417z"/><path d="m23.5924444 678.834011 17.8837827 26.667782 58.3071512-87.684007h-35.5436033zm17.8897076 29.748344-19.9480253-29.744788 41.7896554-62.731336h39.6507589z"/><path d="m.00047399 643.525129v1.711555h6.12992365l-6.12992365 9.225092v3.09123l9.31990132-14.027877z"/><path d="m16.1513357 630.16611-16.1513357 24.285354v3.090044l17.0685135-25.663843h35.7746752l-49.11759814 73.625313-3.72559056-5.554257v3.072265l3.72914551 5.558998 52.31231579-78.413874z"/><path d="m23.5924444 829.787 17.8837827 26.667782 58.3071512-87.684007h-35.5436033zm17.8897076 29.748344-19.9480253-29.744788 41.7896554-62.731336h39.6507589z"/><path d="m.00047399 794.478948v1.71037h6.12992365l-6.12992365 9.226277v3.091229l9.31990132-14.027876z"/><path d="m16.1513357 781.118862-16.1513357 24.286539v3.088859l17.0685135-25.663843h35.7746752l-49.11759814 73.625313-3.72559056-5.554257v3.072265l3.72914551 5.558998 52.31231579-78.413874z"/><path d="m.00047399 727.284412v3.090044l21.60226331-32.485172 17.8837827 26.666596-39.48604601 59.272668v3.084118l41.54317871-62.360341-19.9480253-29.743603z"/><path d="m56.9476188 758.154037h42.8277016l-21.5145745-32.078618zm46.0342692 1.71037h-49.2242469l24.4971799-36.870735z"/><path d="m10.2345907 771.513649h35.7746752l31.2290756-46.957532-17.8861527-26.668966zm36.691853 1.710369h-39.88894059l52.31113079-78.413873 19.9456553 29.742417z"/><path d="m23.5924444 980.739989 17.8837827 26.667781 58.3071512-87.684006h-35.5436033zm17.8897076 29.748341-19.9480253-29.744785 41.7896554-62.731336h39.6507589z"/><path d="m.00047399 945.4317v1.711555h6.12992365l-6.12992365 9.225092v3.091229l9.31990132-14.027876z"/><path d="m16.1513357 932.071614-16.1513357 24.286539v3.088859l17.0685135-25.663843h35.7746752l-49.11759814 73.626501-3.72559056-5.55544v3.07226l3.72914551 5.56018 52.31231579-78.415056z"/><path d="m.00047399 878.237519v3.090045l21.60226331-32.485172 17.8837827 26.667781-39.48604601 59.271482v3.084118l41.54317871-62.360341-19.9480253-29.744787z"/><path d="m56.9476188 909.107026h42.8277016l-21.5145745-32.078618zm46.0342692 1.71037h-49.2242469l24.4971799-36.870735z"/><path d="m10.2345907 922.466638h35.7746752l31.2290756-46.957532-17.8861527-26.668966zm36.691853 1.710369h-39.88894059l52.31113079-78.413873 19.9456553 29.742417z"/><path d="m130.843001 728.459387 17.883783 26.667782 58.307151-87.684007h-35.543603zm17.889708 29.748344-19.948026-29.744788 41.789656-62.731336h39.650759z"/><path d="m70.5534897 694.861705 21.5133895 32.080989 21.3143118-32.080989zm21.5204994 35.161551-24.7270668-36.871921h49.2242467z"/><path d="m93.0897576 728.459387 17.8861524 26.668967 49.118783-73.626498h-35.774675zm17.8897074 29.745973-19.9456551-29.742417 32.3690301-48.671457h39.887756z"/><path d="m70.5459058 684.247337h35.5424182l40.648516-61.016225-17.883783-26.667781zm36.4584112 1.71037h-39.6507588l61.4923888-92.474938 19.948025 29.744787z"/><path d="m164.198175 656.828202h42.827702l-21.514574-32.080989zm46.03427 1.71037h-49.224247l24.49718-36.871921z"/><path d="m117.485266 670.187695h35.774675l31.229076-46.957531-17.886153-26.668967zm36.691853 1.71037h-39.888941l52.311131-78.413874 19.945655 29.742417z"/><path d="m177.505075 734.008073h35.542418l40.648516-61.016225-17.883783-26.667781zm36.458411 1.71037h-39.650759l61.492389-92.474938 19.948025 29.744787z"/><path d="m271.157345 706.588938h42.827701l-21.514574-32.078618zm46.034269 1.71037h-49.224247l24.49718-36.870735z"/><path d="m224.444435 719.948431h35.774675l31.229076-46.957531-17.886153-26.668967zm36.691853 1.71037h-39.888941l52.311131-78.413874 19.945655 29.742417z"/><path d="m130.843001 879.412376 17.883783 26.667782 58.307151-87.684007h-35.543603zm17.889708 29.748344-19.948026-29.744788 41.789656-62.731336h39.650759z"/><path d="m70.5534897 845.814694 21.5133895 32.080989 21.3143118-32.080989zm21.5204994 35.161551-24.7270668-36.871921h49.2242467z"/><path d="m93.0897576 879.412376 17.8861524 26.668967 49.118783-73.626498h-35.774675zm17.8897074 29.745973-19.9456551-29.742417 32.3690301-48.671457h39.887756z"/><path d="m70.5459058 835.200326h35.5424182l40.648516-61.016225-17.883783-26.667781zm36.4584112 1.71037h-39.6507588l61.4923888-92.474938 19.948025 29.744787z"/><path d="m164.198175 807.781191h42.827702l-21.514574-32.080989zm46.03427 1.71037h-49.224247l24.49718-36.871921z"/><path d="m117.485266 821.140684h35.774675l31.229076-46.957531-17.886153-26.668967zm36.691853 1.71037h-39.888941l52.311131-78.413874 19.945655 29.742417z"/><path d="m237.80217 778.251889 17.883783 26.667781 58.307151-87.684006h-35.543603zm17.889708 29.748343-19.948026-29.744787 41.789656-62.731336h39.650759z"/><path d="m177.51254 744.655866 21.51339 32.078618 21.314312-32.078618zm21.5205 35.160365-24.727067-36.870735h49.224247z"/><path d="m200.048927 778.251889 17.886152 26.668967 49.118783-73.626498h-35.77586zm17.889707 29.745973-19.945655-29.742417 32.36903-48.671457h39.887756z"/><path d="m237.80217 929.204878 17.883783 26.667781 58.307151-87.684006h-35.543603zm17.889708 29.748343-19.948026-29.744787 41.789656-62.731336h39.650759z"/><path d="m177.51254 895.607195 21.51339 32.080989 21.314312-32.080989zm21.5205 35.161551-24.727067-36.87192h49.224247z"/><path d="m200.048927 929.204878 17.886152 26.668967 49.118783-73.626498h-35.77586zm17.889707 29.745973-19.945655-29.742417 32.36903-48.671457h39.887756z"/><path d="m177.505075 884.992709h35.542418l40.648516-61.016225-17.883783-26.667781zm36.458411 1.71037h-39.650759l61.492389-92.474938 19.948025 29.744787z"/><path d="m271.157345 857.573693h42.827701l-21.514574-32.080989zm46.034269 1.71037h-49.224247l24.49718-36.871921z"/><path d="m224.444435 870.933186h35.774675l31.229076-46.957531-17.886153-26.668967zm36.691853 1.71037h-39.888941l52.311131-78.413874 19.945655 29.742417z"/><path d="m345.052845 676.925936 17.883783 26.667781 58.307151-87.684007h-35.543603zm17.889708 29.748343-19.948025-29.744788 41.789655-62.731336h39.650759z"/><path d="m284.763215 643.328371 21.51339 32.078619 21.314312-32.078619zm21.5205 35.160366-24.727067-36.870735h49.224247z"/><path d="m307.299602 676.925936 17.886153 26.668966 49.118783-73.626498h-35.774676zm17.889707 29.745972-19.945655-29.742417 32.369031-48.671456h39.88894z"/><path d="m284.75575 632.712226h35.542418l40.648516-61.016225-17.883783-26.667781zm36.458411 1.71037h-39.650759l61.492389-92.474938 19.948026 29.744787z"/><path d="m378.40802 605.293091h42.827701l-21.514574-32.078618zm46.035454 1.71037h-49.225432l24.49718-36.870736z"/><path d="m331.694992 618.652584h35.774675l31.229075-46.957531-17.886152-26.668967zm36.691853 1.71037h-39.888941l52.311131-78.413874 19.945655 29.742417z"/><path d="m345.052845 827.878925 17.883783 26.667781 58.307151-87.684007h-35.543603zm17.889708 29.748343-19.948025-29.744788 41.789655-62.731336h39.650759z"/><path d="m284.763215 794.28136 21.51339 32.078619 21.314312-32.078619zm21.5205 35.160366-24.727067-36.870735h49.224247z"/><path d="m307.299602 827.878925 17.886153 26.668966 49.118783-73.626498h-35.774676zm17.889707 29.745972-19.945655-29.742417 32.369031-48.671456h39.88894z"/><path d="m284.75575 783.665215h35.542418l40.648516-61.016225-17.883783-26.667781zm36.458411 1.71037h-39.650759l61.492389-92.474938 19.948026 29.744787z"/><path d="m378.40802 756.24608h42.827701l-21.514574-32.078618zm46.035454 1.71037h-49.225432l24.49718-36.870736z"/><path d="m331.694992 769.605573h35.774675l31.229075-46.957531-17.886152-26.668967zm36.691853 1.71037h-39.888941l52.311131-78.413874 19.945655 29.742417z"/><path d="m345.052845 978.831914 17.883783 26.667776 58.307151-87.684002h-35.543603zm17.889708 29.748346-19.948025-29.744791 41.789655-62.731336h39.650759z"/><path d="m284.763215 945.234349 21.51339 32.078619 21.314312-32.078619zm21.5205 35.160366-24.727067-36.870735h49.224247z"/><path d="m307.299602 978.831914 17.886153 26.668966 49.118783-73.626498h-35.774676zm17.889707 29.745976-19.945655-29.742421 32.369031-48.671456h39.88894z"/><path d="m284.75575 934.618086h35.542418l40.648516-61.016226-17.883783-26.667781zm36.458411 1.710369h-39.650759l61.492389-92.474938 19.948026 29.744788z"/><path d="m378.40802 907.199069h42.827701l-21.514574-32.078618zm46.035454 1.71037h-49.225432l24.49718-36.870736z"/><path d="m331.694992 920.558562h35.774675l31.229075-46.957531-17.886152-26.668967zm36.691853 1.71037h-39.888941l52.311131-78.413874 19.945655 29.742417z"/><path d="m392.006307 682.339262h35.542418l40.648516-61.016225-17.883783-26.667782zm36.458411 1.710369h-39.650759l61.492389-92.474938 19.948025 29.744788z"/><path d="m485.658576 654.920245h42.827702l-21.514574-32.080989zm46.034269 1.71037h-49.224246l24.49718-36.871921z"/><path d="m438.945548 668.279738h35.774676l31.229075-46.957531-17.886153-26.668967zm36.691853 1.71037h-39.88894l52.311131-78.413874 19.945655 29.742417z"/><path d="m452.303402 726.183754 17.883783 26.665411 58.307151-87.681636h-35.543603zm17.889708 29.745973-19.948026-29.742417 41.790841-62.731336h39.649574z"/><path d="m392.013772 692.586071 21.51339 32.078619 21.314312-32.078619zm21.5205 35.160366-24.727067-36.870735h49.224246z"/><path d="m414.550159 726.183754 17.886152 26.667781 49.117598-73.625312h-35.774675zm17.889707 29.744788-19.945655-29.741232 32.36903-48.671457h39.887756z"/><path d="m452.303402 877.135084 17.883783 26.667781 58.307151-87.684006h-35.543603zm17.889708 29.748343-19.948026-29.744787 41.790841-62.731337h39.649574z"/><path d="m392.013772 843.537401 21.51339 32.080989 21.314312-32.080989zm21.5205 35.161551-24.727067-36.871921h49.224246z"/><path d="m414.550159 877.135084 17.886152 26.668966 49.117598-73.626498h-35.774675zm17.889707 29.745972-19.945655-29.742416 32.36903-48.671457h39.887756z"/><path d="m392.006307 832.923034h35.542418l40.648516-61.016226-17.883783-26.667781zm36.458411 1.710369h-39.650759l61.492389-92.474938 19.948025 29.744788z"/><path d="m485.658576 805.503899h42.827702l-21.514574-32.080989zm46.034269 1.710369h-49.224246l24.49718-36.87192z"/><path d="m438.945548 818.863391h35.774676l31.229075-46.957531-17.886153-26.668966zm36.691853 1.71037h-39.88894l52.311131-78.413874 19.945655 29.742417z"/><path d="m392.006307 983.876023h35.542418l40.648516-61.016226-17.883783-26.667781zm36.458411 1.710369h-39.650759l61.492389-92.474938 19.948025 29.744788z"/><path d="m485.658576 956.456888h42.827702l-21.514574-32.080989zm46.034269 1.710369h-49.224246l24.49718-36.87192z"/><path d="m438.945548 969.81638h35.774676l31.229075-46.957531-17.886153-26.668966zm36.691853 1.71037h-39.88894l52.311131-78.413874 19.945655 29.742417z"/><path d="m559.554077 775.80913 17.883783 26.667782 58.307151-87.684007h-35.543603zm17.889708 29.748344-19.948025-29.744788 41.79084-62.731336h39.649574z"/><path d="m499.264447 742.211566 21.51339 32.078618 21.314312-32.078618zm21.5205 35.160366-24.727067-36.870736h49.224247z"/><path d="m521.800715 775.80913 17.886153 26.668967 49.118783-73.626498h-35.774675zm17.889708 29.745973-19.945655-29.742417 32.36903-48.671457h39.888941z"/><path d="m499.256863 731.595421h35.542419l40.648515-61.016225-17.883782-26.667782zm36.458412 1.71037h-39.650759l61.492389-92.474939 19.948025 29.744788z"/><path d="m592.909252 704.176286h42.827701l-21.514574-32.078619zm46.034269 1.710369h-49.224247l24.49718-36.870735z"/><path d="m546.196224 717.535779h35.774675l31.229075-46.957532-17.886152-26.668966zm36.691853 1.710369h-39.888941l52.311131-78.413873 19.945655 29.742417z"/><path d="m606.216033 781.222575h35.542418l40.648515-61.016225-17.883782-26.667782zm36.458411 1.71037h-39.650759l61.492389-92.474939 19.948025 29.744788z"/><path d="m699.868421 753.803321h42.827701l-21.514574-32.080989zm46.034269 1.71037h-49.224247l24.49718-36.871921z"/><path d="m653.155393 767.162933h35.774675l31.229075-46.957532-17.886152-26.668966zm36.691853 1.710369h-39.888941l52.311131-78.413873 19.945655 29.742417z"/><path d="m559.554077 926.762119 17.883783 26.667782 58.307151-87.684007h-35.543603zm17.889708 29.748344-19.948025-29.744788 41.79084-62.731336h39.649574z"/><path d="m499.264447 893.164555 21.51339 32.078618 21.314312-32.078618zm21.5205 35.160366-24.727067-36.870736h49.224247z"/><path d="m521.800715 926.762119 17.886153 26.668967 49.118783-73.626498h-35.774675zm17.889708 29.745973-19.945655-29.742417 32.36903-48.671457h39.888941z"/><path d="m499.256863 882.54841h35.542419l40.648515-61.016225-17.883782-26.667782zm36.458412 1.71037h-39.650759l61.492389-92.474939 19.948025 29.744788z"/><path d="m592.909252 855.129275h42.827701l-21.514574-32.078619zm46.034269 1.710369h-49.224247l24.49718-36.870735z"/><path d="m546.196224 868.488768h35.774675l31.229075-46.957532-17.886152-26.668966zm36.691853 1.710369h-39.888941l52.311131-78.413873 19.945655 29.742417z"/><path d="m967.399002 1018.62841h2.054763l16.98675-25.544127 17.131315 25.544127h2.0595l-19.197925-28.625874z"/><path d="m1042.79955 1018.62841h.59012l-.29624-.44211z"/><path d="m1005.09146 1018.62841h2.05594l17.04363-25.546497 17.13251 25.546497h2.05831l-19.19437-28.624688z"/><path d="m666.678552 825.351062 17.883782 26.667782 58.307152-87.682822h-35.543604zm17.889707 29.748343-19.948025-29.744787 41.79084-62.728965h39.649574z"/><path d="m606.388922 791.755039 21.514574 32.078618 21.313127-32.078618zm21.520499 35.160365-24.727067-36.870735h49.224247z"/><path d="m628.926138 825.351062 17.886152 26.668967 49.117598-73.626498h-35.774675zm17.889707 29.745973-19.945655-29.742417 32.367845-48.671457h39.888941z"/><path d="m666.678552 976.304051 17.883782 26.667779 58.307152-87.684004h-35.543604zm17.889707 29.748339-19.948025-29.744783 41.79084-62.731336h39.649574z"/><path d="m606.388922 942.706368 21.514574 32.080989 21.313127-32.080989zm21.520499 35.161551-24.727067-36.87192h49.224247z"/><path d="m628.926138 976.304051 17.886152 26.668969 49.117598-73.6265h-35.774675zm17.889707 29.745969-19.945655-29.742413 32.367845-48.671457h39.888941z"/><path d="m606.381338 932.092001h35.543603l40.647331-61.016225-17.883783-26.667781zm36.458411 1.71037h-39.650759l61.492389-92.474938 19.948025 29.744787z"/><path d="m700.033726 904.672866h42.827702l-21.51339-32.080989zm46.035454 1.71037h-49.225432l24.498365-36.871921z"/><path d="m653.320698 918.032359h35.774675l31.230261-46.957531-17.886153-26.668967zm36.691853 1.71037h-39.888941l52.312316-78.413874 19.945655 29.742417z"/><path d="m773.929108 724.025109 17.883783 26.667781 58.307151-87.684007h-35.543603zm17.889708 29.748343-19.948025-29.744787 41.79084-62.731337h39.649574z"/><path d="m713.639597 690.427544 21.514574 32.078619 21.313128-32.078619zm21.520499 35.160366-24.727067-36.870735h49.224247z"/><path d="m736.176694 724.025109 17.886153 26.668966 49.117598-73.626498h-35.774675zm17.889708 29.745972-19.945655-29.742416 32.367845-48.671457h39.888941z"/><path d="m713.632013 679.811399h35.543603l40.647331-61.016225-17.883783-26.666596zm36.458411 1.71037h-39.650759l61.492389-92.473753 19.948026 29.743602z"/><path d="m807.284283 652.392264h42.827701l-21.513389-32.078618zm46.034269 1.71037h-49.224247l24.498365-36.870735z"/><path d="m760.571373 665.751757h35.774675l31.230261-46.957531-17.886153-26.666596zm36.691853 1.71037h-39.88894l52.312315-78.412689 19.945656 29.741232z"/><path d="m773.929108 874.978216 17.883783 26.667782 58.307151-87.684007h-35.543603zm17.889708 29.748344-19.948025-29.744788 41.79084-62.731336h39.649574z"/><path d="m713.639597 841.380533 21.514574 32.078619 21.313128-32.078619zm21.520499 35.160366-24.727067-36.870735h49.224247z"/><path d="m736.176694 874.978216 17.886153 26.668967 49.117598-73.626498h-35.774675zm17.889708 29.745973-19.945655-29.742417 32.367845-48.671457h39.888941z"/><path d="m713.632013 830.764388h35.543603l40.647331-61.016225-17.883783-26.667781zm36.458411 1.71037h-39.650759l61.492389-92.474938 19.948026 29.744787z"/><path d="m807.284283 803.345253h42.827701l-21.513389-32.078618zm46.034269 1.71037h-49.224247l24.498365-36.870735z"/><path d="m760.571373 816.704746h35.774675l31.230261-46.957531-17.886153-26.668967zm36.691853 1.71037h-39.88894l52.312315-78.413874 19.945656 29.742417z"/><path d="m813.661987 963.203899-36.922925 55.424041h2.054762l35.78297-53.713671h35.542419l-35.717796 53.713671h2.054762l36.855381-55.424041z"/><path d="m710.432555 990.622797 18.782001 28.005973h2.059503l-17.634936-26.294418h42.828887l-17.471409 26.294418h2.053578l18.606623-28.005973z"/><path d="m766.488118 977.262712-27.50941 41.365348h2.054763l26.371825-39.653793h35.77586l-26.454774 39.653793h2.054763l27.595914-41.365348z"/><path d="m713.632013 981.717377h35.543603l40.647331-61.016225-17.883783-26.667781zm36.458411 1.71037h-39.650759l61.492389-92.474938 19.948026 29.744787z"/><path d="m807.284283 954.298242h42.827701l-21.513389-32.078618zm46.034269 1.71037h-49.224247l24.498365-36.870736z"/><path d="m760.571373 967.657735h35.774675l31.230261-46.957531-17.886153-26.668967zm36.691853 1.71037h-39.88894l52.312315-78.413874 19.945656 29.742417z"/><path d="m820.882688 729.438435h35.543604l40.64733-61.016225-17.883783-26.667782zm36.458411 1.71037h-39.650758l61.492389-92.474939 19.948025 29.744788z"/><path d="m914.534958 702.019418h42.827701l-21.513389-32.080989zm46.035454 1.71037h-49.225432l24.498365-36.871921z"/><path d="m867.82193 715.378911h35.774675l31.230261-46.957531-17.886153-26.668967zm36.691853 1.71037h-39.888941l52.312316-78.413874 19.945655 29.742417z"/><path d="m881.179784 773.282927 17.883782 26.665411 58.307151-87.681636h-35.543603zm17.889707 29.745973-19.948025-29.742417 41.79084-62.731336h39.649574z"/><path d="m820.890154 739.685363 21.514574 32.078618 21.313127-32.078618zm21.520499 35.160366-24.727067-36.870736h49.224247z"/><path d="m843.42737 773.282927 17.886152 26.667782 49.117598-73.625313h-35.774675zm17.889707 29.744788-19.945655-29.741232 32.367845-48.671457h39.888941z"/><path d="m881.179784 924.234257 17.883782 26.667781 58.307151-87.682821h-35.543603zm17.889707 29.748343-19.948025-29.744787 41.79084-62.728966h39.649574z"/><path d="m820.890154 890.638233 21.514574 32.078619 21.313127-32.078619zm21.520499 35.160366-24.727067-36.870735h49.224247z"/><path d="m843.42737 924.234257 17.886152 26.668966 49.117598-73.626497h-35.774675zm17.889707 29.745973-19.945655-29.742417 32.367845-48.671457h39.888941z"/><path d="m820.882688 880.022207h35.543604l40.64733-61.016225-17.883783-26.667782zm36.458411 1.710369h-39.650758l61.492389-92.474938 19.948025 29.744788z"/><path d="m914.534958 852.603072h42.827701l-21.513389-32.078619zm46.035454 1.710369h-49.225432l24.498365-36.870735z"/><path d="m867.82193 865.962683h35.774675l31.230261-46.957531-17.886153-26.668967zm36.691853 1.71037h-39.888941l52.312316-78.413874 19.945655 29.742417z"/><path d="m920.912069 1012.45935-4.109525 6.16942h2.055947l2.969571-4.45787h35.541233l-2.963645 4.45787h2.053577l4.102416-6.16942z"/><path d="m827.037852 1018.62841h2.054763l50.096395-75.338051 17.883783 26.667782-32.422355 48.670269h2.055948l32.424724-48.67264-19.948025-29.745973z"/><path d="m914.534958 1003.55606h42.827701l-21.513389-32.080988zm46.035454 1.71037h-49.225432l24.498365-36.87192z"/><path d="m864.625079 1018.62628h39.888941l32.36903-48.671458-19.945655-29.742417zm52.315871-75.336869 17.884968 26.668967-31.229076 46.956342h-35.774675z"/><path d="m988.430459 822.908303 17.883781 26.667782 58.30834-87.684007h-35.54479zm17.889711 29.748344-19.948029-29.744788 41.790839-62.731336h39.64958z"/><path d="m928.140829 789.310739 21.514574 32.078618 21.313127-32.078618zm21.520499 35.160366-24.727067-36.870736h49.224247z"/><path d="m950.677926 822.908303 17.886153 26.668967 49.117601-73.626498h-35.774678zm17.889708 29.745973-19.945656-29.742417 32.367846-48.671457h39.888936z"/><path d="m928.133245 778.694594h35.543603l40.647332-61.016225-17.883784-26.667782zm36.458411 1.71037h-39.650759l61.492389-92.474939 19.948024 29.744788z"/><path d="m1021.78646 751.275459h42.8277l-21.51457-32.078619zm46.03427 1.71037h-49.22425l24.49718-36.870736z"/><path d="m975.072605 764.63507h35.774675l31.23026-46.957531-17.88615-26.668967zm36.691855 1.71037h-39.888943l52.312313-78.413874 19.94566 29.742417z"/><path d="m1035.0923 828.456989h35.5436l40.64733-61.016225-17.88378-26.667781zm36.45841 1.71037h-39.65076l61.49239-92.474938 19.94921 29.744787z"/><path d="m1128.74563 801.037854h42.8277l-21.51457-32.080989zm46.03427 1.71037h-49.22425l24.49718-36.871921z"/><path d="m1082.0326 814.397466h35.77586l31.22671-46.957532-17.88615-26.668966zm36.69067 1.710369h-39.88775l52.30994-78.413873 19.94803 29.742417z"/><path d="m988.430459 973.861411 17.883781 26.667779 58.30834-87.684004h-35.54479zm17.889711 29.748339-19.948029-29.744783 41.790839-62.731336h39.64958z"/><path d="m928.140829 940.263728 21.514574 32.078618 21.313127-32.078618zm21.520499 35.160366-24.727067-36.870736h49.224247z"/><path d="m950.677926 973.861411 17.886153 26.668969 49.117601-73.6265h-35.774678zm17.889708 29.745969-19.945656-29.742413 32.367846-48.671457h39.888936z"/><path d="m928.133245 929.647583h35.543603l40.647332-61.016225-17.883784-26.667782zm36.458411 1.71037h-39.650759l61.492389-92.474939 19.948024 29.744788z"/><path d="m1021.78646 902.228448h42.8277l-21.51457-32.078619zm46.03427 1.71037h-49.22425l24.49718-36.870736z"/><path d="m975.072605 915.587941h35.774675l31.23026-46.957532-17.88615-26.668966zm36.691855 1.710369h-39.888943l52.312313-78.413873 19.94566 29.742417z"/><path d="m1095.39034 872.700805 17.8826 26.667781 58.30833-87.684006h-35.54479zm17.88971 29.748343-19.94803-29.744787 41.78966-62.731336h39.65076z"/><path d="m1035.09988 839.103122 21.51339 32.078619 21.3155-32.078619zm21.5205 35.160366-24.72707-36.870736h49.22543z"/><path d="m1057.6371 872.700805 17.88615 26.668967 49.11878-73.626498h-35.77586zm17.8897 29.745973-19.94802-29.742417 32.3714-48.671457h39.88775z"/><path d="m1135.12108 960.926369-38.43852 57.702161h2.05595l37.29738-55.990606h35.54598l-37.2334 55.990606h2.05358l38.36979-57.702161z"/><path d="m1031.8926 988.345267 20.30945 30.282913h2.0595l-19.16238-28.571358h42.82888l-18.98581 28.571358h2.05476l20.12103-30.282913z"/><path d="m1087.95041 974.986249-29.02618 43.642281h2.05476l27.88623-41.931912h35.77705l-27.97511 41.931912h2.05713l29.11388-43.642281z"/><path d="m1035.0923 979.440085h35.5436l40.64733-61.016226-17.88378-26.667781zm36.45841 1.710369h-39.65076l61.49239-92.474938 19.94921 29.744787z"/><path d="m1128.74563 952.020949h42.8277l-21.51457-32.078618zm46.03427 1.71037h-49.22425l24.49718-36.870735z"/><path d="m1082.0326 965.380442h35.77586l31.22671-46.957531-17.88615-26.668967zm36.69067 1.71037h-39.88775l52.30994-78.413874 19.94803 29.742417z"/><path d="m1202.64018 771.373311 17.88497 26.667781 58.30597-87.682821h-35.5436zm17.8909 29.748343-19.94921-29.744788 41.79084-62.728965h39.64957z"/><path d="m1142.35044 737.777287 21.51457 32.078619 21.31313-32.078619zm21.5205 35.160366-24.72707-36.870735h49.22425z"/><path d="m1164.8886 771.373311 17.88497 26.668966 49.1176-73.626498h-35.77586zm17.88734 29.745972-19.94566-29.742417 32.37022-48.671456h39.88775z"/><path d="m1142.34226 727.161142h35.5436l40.64733-61.016225-17.88259-26.667781zm36.45841 1.71037h-39.64839l61.49121-92.474938 19.94802 29.744787z"/><path d="m1235.99536 699.742007h42.8277l-21.51457-32.078618zm46.03427 1.71037h-49.22425l24.49718-36.870736z"/><path d="m1189.28233 713.101618h35.77586l31.22671-46.957531-17.88379-26.668966zm36.69067 1.71037h-39.88776l52.31232-78.413874 19.94565 29.742417z"/><path d="m1202.64018 922.3263 17.88497 26.667781 58.30597-87.684007h-35.5436zm17.8909 29.748343-19.94921-29.744788 41.79084-62.731336h39.64957z"/><path d="m1142.35044 888.728617 21.51457 32.080989 21.31313-32.080989zm21.5205 35.161551-24.72707-36.871921h49.22425z"/><path d="m1164.8886 922.3263 17.88497 26.668966 49.1176-73.626498h-35.77586zm17.88734 29.745972-19.94566-29.742417 32.37022-48.671456h39.88775z"/><path d="m1142.34226 878.114131h35.5436l40.64733-61.016225-17.88259-26.667781zm36.45841 1.71037h-39.64839l61.49121-92.474938 19.94802 29.744787z"/><path d="m1235.99536 850.694996h42.8277l-21.51457-32.080989zm46.03427 1.71037h-49.22425l24.49718-36.871921z"/><path d="m1189.28233 864.054607h35.77586l31.22671-46.957531-17.88379-26.668966zm36.69067 1.71037h-39.88776l52.31232-78.413874 19.94565 29.742417z"/><path d="m1242.37211 1010.55198-5.37982 8.07655h2.05476l4.24106-6.36618h35.54242l-4.23277 6.36618h2.05358l5.37035-8.07655z"/><path d="m1147.2302 1018.62841h2.05358l51.3667-77.245178 17.8826 26.666596-33.69385 50.578582h2.05595l33.69621-50.580952-19.94802-29.744788z"/><path d="m1235.99536 1001.6481h42.8277l-21.51457-32.080985zm46.03427 1.71037h-49.22425l24.49718-36.871917z"/><path d="m1189.28233 1015.0076h35.77586l31.22671-46.957535-17.88379-26.668966zm36.69067 1.71037h-39.88776l52.31232-78.413878 19.94565 29.742417z"/><path d="m1249.59365 776.786637h35.5436l40.64733-61.016225-17.88378-26.667782zm36.45841 1.710369h-39.64839l61.49002-92.474938 19.94921 29.744788z"/><path d="m1343.24674 749.367502h42.82771l-21.51458-32.078619zm46.03546 1.710369h-49.22543l24.49718-36.870735z"/><path d="m1296.53384 762.726995h35.77586l31.2267-46.957532-17.88615-26.668966zm36.69066 1.710369h-39.88775l52.30994-78.413873 19.94803 29.742416z"/><path d="m1309.89157 820.631129 17.8826 26.667782 58.30833-87.684007h-35.5436zm17.88971 29.748343-19.94803-29.744787 41.79084-62.731336h39.64958z"/><path d="m1249.60194 787.033446 21.51221 32.078619 21.31549-32.078619zm21.51932 35.160366-24.72589-36.870735h49.22425z"/><path d="m1272.13833 820.631129 17.88615 26.668967 49.11878-73.626498h-35.77586zm17.8897 29.745973-19.94802-29.742417 32.3714-48.671457h39.88776z"/><path d="m1309.89157 971.584118 17.8826 26.667782 58.30833-87.684007h-35.5436zm17.88971 29.748342-19.94803-29.744786 41.79084-62.731336h39.64958z"/><path d="m1249.60194 937.986435 21.51221 32.078619 21.31549-32.078619zm21.51932 35.160366-24.72589-36.870735h49.22425z"/><path d="m1272.13833 971.584118 17.88615 26.668967 49.11878-73.626498h-35.77586zm17.8897 29.745972-19.94802-29.742416 32.3714-48.671457h39.88776z"/><path d="m1249.59365 927.37029h35.5436l40.64733-61.016225-17.88378-26.667781zm36.45841 1.71037h-39.64839l61.49002-92.474938 19.94921 29.744787z"/><path d="m1343.24674 899.951274h42.82771l-21.51458-32.078619zm46.03546 1.710369h-49.22543l24.49718-36.870735z"/><path d="m1296.53384 913.310767h35.77586l31.2267-46.957532-17.88615-26.668966zm36.69066 1.710369h-39.88775l52.30994-78.413873 19.94803 29.742416z"/><path d="m1095.53562 721.580809 17.8826 26.667781 58.30833-87.682821h-35.5436zm17.88971 29.748343-19.94803-29.744787 41.79084-62.728966h39.64957z"/><path d="m1035.24611 687.984786 21.51457 32.078618 21.31313-32.078618zm21.5205 35.160365-24.72707-36.870735h49.22425z"/><path d="m1057.78415 721.580809 17.88497 26.668967 49.1176-73.626498h-35.77586zm17.88734 29.745973-19.94566-29.742417 32.37022-48.671457h39.88776z"/><path d="m1287.2342 1018.62841h2.05358l18.61254-27.989374 17.88497 26.667784-.88044 1.32159h2.05476l.88281-1.32515-19.94802-29.744786z"/><path d="m1362.63771 1018.62841h3.8512l-1.93508-2.88499z"/><path d="m1324.92144 1018.62841h2.05594l18.67299-27.99056 17.88615 26.66897-.87926 1.32159h2.05595l.88044-1.32515-19.94565-29.743601z"/><path d="m1415.08322 870.260417 19.94921 29.744787 4.96745-7.469681v-3.09123l-4.97456 7.479164-17.88379-26.667781 22.85835-34.310515v-3.085303z"/><path d="m1356.85179 836.6606 21.51457 32.078619 21.31313-32.078619zm21.5205 35.160366-24.72707-36.870735h49.22425z"/><path d="m1409.70173 821.588486-32.37022 48.671457 19.94566 29.742417 42.72224-64.038709v-3.081747l-42.7258 64.043449-17.88378-26.668966 31.22671-46.956346h29.38287v-1.711555z"/><path d="m1356.84337 826.044455h35.54361l40.64733-61.016225-17.8826-26.667781zm36.45841 1.71037h-39.64838l61.49238-92.474938 19.94684 29.744787z"/><path d="m1400.58648 813.695538h39.41257v-2.372945l-.43963.66139h-35.77586l36.21549-54.284978v-3.081747z"/><path d="m1416.80512 1018.62841h2.05595l21.13893-31.731327v-3.086488z"/><path d="m1353.6451 985.901323 21.94709 32.726967h2.06069l-20.80121-31.015412h42.82888l-20.60806 31.015412h2.05477l21.74209-32.726967z"/><path d="m1409.70173 972.541238-30.6508 46.087532h2.05594l29.50967-44.375977h29.38287v-1.711555zm7.08621 46.087532h2.05594l21.15553-31.712367v-3.081747z"/><path d="m1356.84337 976.997444h35.54361l40.64733-61.016225-17.8826-26.667781zm36.45841 1.71037h-39.64838l61.49238-92.474938 19.94684 29.744787z"/><path d="m1400.58648 964.64829h39.41257v-2.37176l-.43963.661391h-35.77586l36.21549-54.286164v-3.081747z"/></g></svg>